<svg xmlns="http://www.w3.org/2000/svg" xmlns:xlink="http://www.w3.org/1999/xlink" width="500" zoomAndPan="magnify" viewBox="0 0 375 374.999991" height="500" preserveAspectRatio="xMidYMid meet" version="1.0"><defs><clipPath id="6f09af46aa"><path d="M 115 90 L 286 90 L 286 326.894531 L 115 326.894531 Z M 115 90 " clip-rule="nonzero"/></clipPath><clipPath id="19a2d9b96d"><path d="M 88.761719 47.894531 L 286.011719 47.894531 L 286.011719 326.894531 L 88.761719 326.894531 Z M 88.761719 47.894531 " clip-rule="nonzero"/></clipPath></defs><rect x="-37.5" width="450" fill="#ffffff" y="-37.499999" height="449.999989" fill-opacity="1"/><rect x="-37.5" width="450" fill="#ffffff" y="-37.499999" height="449.999989" fill-opacity="1"/><path fill="#737373" d="M 186.667969 48.511719 L 176.515625 48.511719 C 128.402344 48.511719 89.398438 90.039062 89.398438 141.230469 L 89.398438 218.566406 C 89.398438 269.753906 128.402344 311.285156 176.515625 311.285156 L 186.667969 311.285156 C 234.78125 311.285156 273.785156 269.753906 273.785156 218.566406 L 273.785156 141.230469 C 273.785156 90.039062 234.78125 48.511719 186.667969 48.511719 Z M 227.582031 214.136719 C 227.582031 238.5625 209 258.3125 186.050781 258.3125 L 177.070312 258.3125 C 154.121094 258.3125 135.539062 238.5625 135.539062 214.136719 L 135.539062 145.660156 C 135.539062 121.234375 154.121094 101.484375 177.070312 101.484375 L 186.050781 101.484375 C 209 101.484375 227.582031 121.234375 227.582031 145.660156 Z M 227.582031 214.136719 " fill-opacity="1" fill-rule="nonzero"/><g clip-path="url(#6f09af46aa)"><path fill="#545454" d="M 135.601562 214.136719 L 135.601562 145.660156 C 135.601562 121.234375 154.183594 101.484375 177.132812 101.484375 L 186.113281 101.484375 C 202.355469 101.484375 216.382812 111.390625 223.214844 125.847656 C 216.199219 120.125 207.464844 116.679688 197.925781 116.679688 L 188.945312 116.679688 C 165.996094 116.679688 147.414062 136.429688 147.414062 160.855469 L 147.414062 229.332031 C 147.414062 236.46875 149.015625 243.175781 151.84375 249.144531 C 141.9375 241.082031 135.601562 228.410156 135.601562 214.136719 Z M 259.390625 90.164062 C 268.496094 104.804688 273.785156 122.339844 273.785156 141.230469 L 273.785156 218.566406 C 273.785156 269.753906 234.78125 311.285156 186.667969 311.285156 L 176.515625 311.285156 C 152.828125 311.285156 131.355469 301.191406 115.605469 284.828125 C 131.171875 309.929688 157.9375 326.480469 188.328125 326.480469 L 198.480469 326.480469 C 246.59375 326.480469 285.597656 284.949219 285.597656 233.761719 L 285.597656 156.425781 C 285.597656 130.460938 275.570312 106.960938 259.390625 90.164062 Z M 259.390625 90.164062 " fill-opacity="1" fill-rule="nonzero"/></g><g clip-path="url(#19a2d9b96d)"><path fill="#000000" d="M 135.046875 216.226562 C 135.046875 216.289062 135.046875 216.414062 135.046875 216.472656 C 135.109375 217.152344 135.109375 217.890625 135.171875 218.566406 C 135.171875 218.628906 135.171875 218.6875 135.171875 218.75 C 136.339844 230.933594 142.125 242.007812 151.414062 249.574219 C 151.414062 249.574219 151.476562 249.636719 151.476562 249.636719 C 158.550781 255.417969 167.472656 258.863281 177.070312 258.863281 L 186.050781 258.863281 C 209.308594 258.863281 228.195312 238.746094 228.195312 214.074219 L 228.195312 145.660156 C 228.195312 138.460938 226.597656 131.691406 223.765625 125.664062 C 223.765625 125.664062 223.765625 125.601562 223.765625 125.601562 C 217.554688 112.433594 205.925781 103.574219 192.574219 101.421875 C 192.574219 101.421875 192.511719 101.421875 192.511719 101.421875 C 191.835938 101.300781 191.160156 101.238281 190.421875 101.113281 C 190.421875 101.113281 190.421875 101.113281 190.359375 101.113281 C 189.742188 101.054688 189.128906 100.992188 188.511719 100.992188 C 188.390625 100.992188 188.207031 100.992188 188.082031 100.992188 C 187.40625 100.929688 186.789062 100.929688 186.113281 100.929688 L 177.132812 100.929688 C 173.5 100.929688 169.996094 101.421875 166.609375 102.34375 C 165.503906 102.652344 164.457031 103.023438 163.351562 103.390625 C 162.859375 103.574219 162.367188 103.761719 161.8125 104.007812 C 158.367188 105.421875 155.105469 107.328125 152.152344 109.667969 C 151.78125 109.972656 151.414062 110.21875 151.105469 110.527344 C 150.304688 111.203125 149.566406 111.882812 148.769531 112.621094 C 140.277344 120.804688 134.925781 132.617188 134.925781 145.78125 L 134.925781 214.257812 C 134.988281 214.875 134.988281 215.550781 135.046875 216.226562 Z M 226.964844 214.136719 C 226.964844 238.128906 208.632812 257.695312 186.050781 257.695312 L 177.070312 257.695312 C 167.78125 257.695312 159.167969 254.371094 152.273438 248.710938 C 149.445312 242.621094 147.96875 236.101562 147.96875 229.332031 L 147.96875 160.855469 C 147.96875 136.859375 166.304688 117.296875 188.882812 117.296875 L 197.863281 117.296875 C 206.910156 117.296875 215.460938 120.371094 222.660156 126.21875 C 225.429688 132.0625 226.964844 138.644531 226.964844 145.660156 Z M 186.113281 102.097656 C 186.730469 102.097656 187.40625 102.097656 188.019531 102.160156 C 188.144531 102.160156 188.265625 102.160156 188.453125 102.160156 C 189.742188 102.222656 191.097656 102.40625 192.328125 102.589844 C 192.328125 102.589844 192.390625 102.589844 192.390625 102.589844 C 204.757812 104.621094 215.339844 112.621094 221.429688 123.695312 C 214.476562 118.710938 206.417969 116.066406 197.925781 116.066406 L 188.945312 116.066406 C 165.6875 116.066406 146.800781 136.183594 146.800781 160.855469 L 146.800781 229.332031 C 146.800781 235.421875 147.90625 241.269531 150.121094 246.804688 C 149.9375 246.683594 149.8125 246.496094 149.628906 246.375 C 149.628906 246.375 149.566406 246.3125 149.566406 246.3125 C 143.292969 240.222656 138.800781 232.101562 137.015625 222.933594 C 137.015625 222.871094 137.015625 222.8125 136.957031 222.75 C 136.832031 222.132812 136.710938 221.457031 136.648438 220.84375 C 136.648438 220.65625 136.585938 220.410156 136.585938 220.226562 C 136.523438 219.734375 136.464844 219.179688 136.402344 218.6875 C 136.339844 218.320312 136.339844 217.949219 136.339844 217.519531 C 136.339844 217.152344 136.277344 216.78125 136.277344 216.414062 C 136.21875 215.675781 136.21875 214.875 136.21875 214.136719 L 136.21875 145.660156 C 136.21875 121.664062 154.550781 102.097656 177.132812 102.097656 Z M 259.820312 89.734375 C 244.070312 64.507812 217.183594 47.894531 186.667969 47.894531 L 176.515625 47.894531 C 128.15625 47.894531 88.78125 89.734375 88.78125 141.230469 L 88.78125 218.566406 C 88.78125 244.589844 98.871094 268.15625 115.113281 285.136719 C 115.113281 285.136719 115.113281 285.136719 115.113281 285.195312 C 131.417969 311.46875 158.796875 327.09375 188.328125 327.09375 L 198.480469 327.09375 C 246.839844 327.09375 286.214844 285.257812 286.214844 233.761719 L 286.214844 156.425781 C 286.214844 131.140625 276.863281 107.453125 259.820312 89.734375 Z M 90.011719 141.230469 C 90.011719 90.410156 128.835938 49.125 176.515625 49.125 L 186.667969 49.125 C 221.675781 49.125 251.882812 71.335938 265.480469 103.269531 C 265.542969 103.390625 265.605469 103.515625 265.664062 103.636719 C 266.15625 104.746094 266.589844 105.851562 267.019531 106.960938 C 267.082031 107.207031 267.203125 107.390625 267.265625 107.636719 C 267.449219 108.191406 267.632812 108.742188 267.820312 109.234375 C 267.941406 109.605469 268.066406 109.972656 268.1875 110.34375 C 268.433594 111.082031 268.679688 111.757812 268.863281 112.496094 C 269.050781 113.050781 269.171875 113.605469 269.355469 114.15625 C 269.480469 114.589844 269.601562 115.019531 269.726562 115.449219 C 269.910156 116.003906 270.035156 116.621094 270.21875 117.171875 C 270.28125 117.480469 270.402344 117.851562 270.464844 118.15625 C 270.648438 119.019531 270.894531 119.941406 271.078125 120.804688 C 271.140625 121.109375 271.203125 121.417969 271.265625 121.726562 C 271.386719 122.464844 271.570312 123.203125 271.695312 123.878906 C 271.757812 124.125 271.757812 124.371094 271.816406 124.617188 C 272.003906 125.539062 272.125 126.523438 272.25 127.507812 C 272.308594 127.753906 272.308594 127.941406 272.308594 128.1875 C 272.433594 128.984375 272.496094 129.785156 272.617188 130.585938 C 272.617188 130.832031 272.679688 131.078125 272.679688 131.324219 C 272.800781 132.308594 272.863281 133.292969 272.925781 134.277344 C 272.925781 134.460938 272.925781 134.585938 272.925781 134.769531 C 272.988281 135.628906 273.046875 136.492188 273.046875 137.351562 C 273.046875 137.597656 273.046875 137.90625 273.046875 138.152344 C 273.046875 139.136719 273.109375 140.183594 273.109375 141.167969 L 273.109375 218.503906 C 273.109375 269.261719 234.289062 310.605469 186.605469 310.605469 L 176.453125 310.605469 C 175.714844 310.605469 174.976562 310.605469 174.238281 310.605469 C 174.054688 310.605469 173.871094 310.605469 173.6875 310.605469 C 173.132812 310.605469 172.640625 310.546875 172.085938 310.546875 C 171.902344 310.546875 171.71875 310.546875 171.53125 310.484375 C 170.980469 310.421875 170.425781 310.421875 169.871094 310.359375 C 169.75 310.359375 169.5625 310.359375 169.441406 310.300781 C 168.824219 310.238281 168.273438 310.175781 167.65625 310.113281 C 167.59375 310.113281 167.472656 310.113281 167.410156 310.113281 C 166.734375 310.054688 166.117188 309.992188 165.441406 309.867188 C 165.441406 309.867188 165.378906 309.867188 165.378906 309.867188 C 122.988281 304.085938 90.011719 265.386719 90.011719 218.566406 Z M 284.984375 233.761719 C 284.984375 284.519531 246.160156 325.863281 198.480469 325.863281 L 188.328125 325.863281 C 161.074219 325.863281 135.726562 312.328125 119.359375 289.378906 C 132.464844 301.378906 148.335938 308.882812 165.320312 311.160156 C 165.320312 311.160156 165.378906 311.160156 165.378906 311.160156 C 166.058594 311.222656 166.671875 311.34375 167.347656 311.40625 C 167.472656 311.40625 167.59375 311.40625 167.78125 311.46875 C 168.332031 311.53125 168.886719 311.589844 169.441406 311.652344 C 169.625 311.652344 169.808594 311.714844 170.054688 311.714844 C 170.546875 311.777344 171.039062 311.777344 171.59375 311.835938 C 171.839844 311.835938 172.023438 311.835938 172.269531 311.898438 C 172.761719 311.898438 173.253906 311.960938 173.808594 311.960938 C 173.992188 311.960938 174.238281 311.960938 174.425781 311.960938 C 175.164062 311.960938 175.839844 311.960938 176.578125 311.960938 L 186.730469 311.960938 C 235.085938 311.960938 274.464844 270.125 274.464844 218.628906 L 274.464844 141.230469 C 274.464844 140.304688 274.464844 139.382812 274.402344 138.460938 C 274.402344 138.152344 274.402344 137.90625 274.402344 137.597656 C 274.402344 136.921875 274.339844 136.246094 274.339844 135.628906 C 274.339844 135.324219 274.277344 135.015625 274.277344 134.707031 C 274.21875 134.03125 274.15625 133.292969 274.09375 132.617188 C 274.09375 132.371094 274.03125 132.183594 274.03125 131.9375 C 273.972656 131.015625 273.847656 130.09375 273.726562 129.230469 C 273.726562 129.046875 273.664062 128.863281 273.664062 128.617188 C 273.601562 127.878906 273.480469 127.203125 273.355469 126.523438 C 273.292969 126.21875 273.234375 125.910156 273.234375 125.601562 C 273.109375 124.988281 273.046875 124.371094 272.925781 123.816406 C 272.863281 123.511719 272.800781 123.140625 272.742188 122.832031 C 272.617188 122.15625 272.496094 121.417969 272.308594 120.742188 C 272.25 120.3125 272.125 119.878906 272.003906 119.511719 C 271.878906 118.957031 271.757812 118.34375 271.570312 117.789062 C 271.449219 117.359375 271.324219 116.925781 271.265625 116.496094 C 271.140625 116.128906 271.078125 115.695312 270.957031 115.328125 C 270.832031 114.835938 270.710938 114.34375 270.527344 113.851562 C 270.464844 113.542969 270.339844 113.296875 270.28125 112.988281 C 269.726562 111.082031 269.109375 109.234375 268.433594 107.390625 C 268.371094 107.265625 268.371094 107.144531 268.3125 107.082031 C 266.773438 102.960938 264.988281 98.960938 262.898438 95.085938 C 277.230469 112.003906 285.046875 133.601562 285.046875 156.609375 L 285.046875 233.761719 Z M 284.984375 233.761719 " fill-opacity="1" fill-rule="nonzero"/></g></svg>