<svg xmlns="http://www.w3.org/2000/svg" xmlns:xlink="http://www.w3.org/1999/xlink" width="500" zoomAndPan="magnify" viewBox="0 0 375 374.999991" height="500" preserveAspectRatio="xMidYMid meet" version="1.0"><defs><clipPath id="ec53dff0ee"><path d="M 85 48 L 289.703125 48 L 289.703125 326 L 85 326 Z M 85 48 " clip-rule="nonzero"/></clipPath><clipPath id="2a146872dd"><path d="M 84.953125 48 L 289.703125 48 L 289.703125 326.894531 L 84.953125 326.894531 Z M 84.953125 48 " clip-rule="nonzero"/></clipPath></defs><rect x="-37.5" width="450" fill="#ffffff" y="-37.499999" height="449.999989" fill-opacity="1"/><rect x="-37.5" width="450" fill="#ffffff" y="-37.499999" height="449.999989" fill-opacity="1"/><path fill="#737373" d="M 278.492188 197.144531 L 250.949219 197.144531 L 250.949219 48.949219 L 174.011719 48.949219 L 85.578125 197.144531 L 85.578125 249.042969 L 198.992188 249.042969 L 198.992188 314.550781 L 250.886719 314.550781 L 250.886719 249.042969 L 278.429688 249.042969 L 278.429688 197.144531 Z M 149.714844 197.144531 L 197.804688 102.53125 L 199.054688 102.53125 L 199.054688 197.144531 Z M 149.714844 197.144531 " fill-opacity="1" fill-rule="nonzero"/><g clip-path="url(#ec53dff0ee)"><path fill="#545454" d="M 166.390625 197.144531 L 149.652344 197.144531 L 197.742188 102.53125 L 198.992188 102.53125 L 198.992188 133.007812 Z M 261.816406 113.960938 L 261.816406 60.375 L 250.949219 48.949219 L 250.949219 197.082031 L 261.878906 197.082031 L 261.878906 113.960938 Z M 278.492188 197.144531 L 278.492188 249.042969 L 250.949219 249.042969 L 250.949219 314.550781 L 199.054688 314.550781 L 209.980469 325.980469 L 261.878906 325.980469 L 261.878906 260.46875 L 289.417969 260.46875 L 289.417969 208.574219 Z M 198.992188 249.042969 L 85.578125 249.042969 L 96.507812 260.46875 L 199.054688 260.46875 L 199.054688 249.042969 Z M 198.992188 249.042969 " fill-opacity="1" fill-rule="nonzero"/></g><g clip-path="url(#2a146872dd)"><path fill="#000000" d="M 199.613281 197.144531 L 199.613281 102.46875 C 199.613281 102.09375 199.363281 101.84375 198.992188 101.84375 L 197.742188 101.84375 C 197.492188 101.84375 197.304688 101.96875 197.179688 102.15625 L 149.09375 196.769531 C 148.96875 196.957031 149.03125 197.207031 149.09375 197.394531 C 149.21875 197.582031 149.402344 197.707031 149.652344 197.707031 L 198.992188 197.707031 C 199.363281 197.769531 199.613281 197.457031 199.613281 197.144531 Z M 150.714844 196.519531 L 198.179688 103.15625 L 198.429688 103.15625 L 198.429688 132.820312 L 166.078125 196.519531 Z M 167.453125 196.519531 L 198.429688 135.566406 L 198.429688 196.519531 Z M 289.855469 208.136719 L 278.929688 196.707031 C 278.929688 196.707031 278.929688 196.707031 278.867188 196.707031 C 278.804688 196.644531 278.804688 196.644531 278.742188 196.582031 C 278.742188 196.582031 278.679688 196.582031 278.679688 196.582031 C 278.617188 196.582031 278.554688 196.582031 278.492188 196.519531 C 278.492188 196.519531 278.492188 196.519531 278.429688 196.519531 L 262.378906 196.519531 L 262.378906 60.375 C 262.378906 60.1875 262.316406 60.0625 262.191406 59.9375 L 251.386719 48.511719 C 251.324219 48.449219 251.261719 48.449219 251.261719 48.386719 C 251.261719 48.386719 251.199219 48.386719 251.199219 48.386719 C 251.136719 48.386719 251.074219 48.386719 251.011719 48.324219 C 251.011719 48.324219 251.011719 48.324219 250.949219 48.324219 L 174.011719 48.324219 C 173.761719 48.324219 173.574219 48.449219 173.449219 48.636719 L 85.015625 196.769531 C 84.953125 196.894531 84.953125 197.019531 84.953125 197.144531 L 84.953125 249.042969 C 84.953125 249.042969 84.953125 249.042969 84.953125 249.105469 C 84.953125 249.167969 84.953125 249.230469 85.015625 249.292969 C 85.015625 249.292969 85.015625 249.355469 85.015625 249.355469 C 85.015625 249.417969 85.078125 249.476562 85.140625 249.539062 L 96.070312 260.96875 C 96.195312 261.09375 96.382812 261.15625 96.507812 261.15625 L 198.429688 261.15625 L 198.429688 314.550781 C 198.429688 314.550781 198.429688 314.550781 198.429688 314.613281 C 198.429688 314.675781 198.429688 314.738281 198.492188 314.800781 C 198.492188 314.800781 198.492188 314.863281 198.492188 314.863281 C 198.492188 314.925781 198.554688 314.988281 198.617188 315.050781 L 209.542969 326.480469 C 209.667969 326.605469 209.855469 326.667969 209.980469 326.667969 L 261.878906 326.667969 C 262.253906 326.667969 262.503906 326.417969 262.503906 326.042969 L 262.503906 261.09375 L 289.417969 261.09375 C 289.792969 261.09375 290.042969 260.84375 290.042969 260.46875 L 290.042969 208.574219 C 290.042969 208.386719 289.980469 208.261719 289.855469 208.136719 Z M 261.191406 196.519531 L 251.511719 196.519531 L 251.511719 50.507812 L 261.191406 60.625 Z M 86.203125 197.269531 L 174.382812 49.570312 L 250.324219 49.570312 L 250.324219 197.144531 C 250.324219 197.519531 250.574219 197.769531 250.949219 197.769531 L 277.929688 197.769531 L 277.929688 248.417969 L 251.011719 248.417969 C 250.636719 248.417969 250.386719 248.667969 250.386719 249.042969 L 250.386719 313.929688 L 199.738281 313.929688 L 199.738281 249.105469 C 199.738281 248.730469 199.488281 248.480469 199.117188 248.480469 L 86.203125 248.480469 Z M 96.757812 259.84375 L 87.015625 249.664062 L 198.367188 249.664062 L 198.367188 259.84375 Z M 288.796875 259.84375 L 261.878906 259.84375 C 261.503906 259.84375 261.253906 260.09375 261.253906 260.46875 L 261.253906 325.355469 L 210.230469 325.355469 L 200.488281 315.175781 L 250.949219 315.175781 C 251.324219 315.175781 251.574219 314.925781 251.574219 314.550781 L 251.574219 249.664062 L 278.492188 249.664062 C 278.867188 249.664062 279.117188 249.417969 279.117188 249.042969 L 279.117188 198.707031 L 288.796875 208.824219 Z M 288.796875 259.84375 " fill-opacity="1" fill-rule="nonzero"/></g></svg>