<svg xmlns="http://www.w3.org/2000/svg" xmlns:xlink="http://www.w3.org/1999/xlink" width="500" zoomAndPan="magnify" viewBox="0 0 375 374.999991" height="500" preserveAspectRatio="xMidYMid meet" version="1.0"><defs><clipPath id="072d2a3599"><path d="M 41 54 L 336 54 L 336 327.355469 L 41 327.355469 Z M 41 54 " clip-rule="nonzero"/></clipPath></defs><rect x="-37.5" width="450" fill="#ffffff" y="-37.499999" height="449.999989" fill-opacity="1"/><rect x="-37.5" width="450" fill="#ffffff" y="-37.499999" height="449.999989" fill-opacity="1"/><g clip-path="url(#072d2a3599)"><path fill="#5ce1e6" d="M 124.164062 327.359375 L 261.5625 327.359375 C 277.410156 327.359375 292.707031 321.566406 304.582031 311.074219 L 318.773438 298.535156 C 342.886719 277.226562 340.867188 239.007812 314.644531 220.359375 C 293.539062 205.347656 287.402344 176.695312 300.503906 154.351562 L 301.984375 151.824219 C 313.828125 131.628906 311.066406 106.058594 295.1875 88.855469 L 276.035156 68.109375 C 257.101562 47.601562 223.960938 50.273438 208.554688 73.554688 C 196.84375 91.257812 173.972656 97.769531 154.695312 88.894531 L 146.324219 85.039062 C 122.273438 73.96875 93.746094 82.054688 79.078125 104.101562 L 69.671875 118.238281 C 60.371094 132.21875 59.230469 150.105469 66.683594 165.160156 C 75.253906 182.460938 72.378906 203.246094 59.429688 217.570312 L 55.65625 221.742188 C 32.085938 247.808594 38.5 288.972656 68.878906 306.628906 L 87.59375 317.503906 C 98.703125 323.960938 111.320312 327.359375 124.164062 327.359375 Z M 124.164062 327.359375 " fill-opacity="1" fill-rule="nonzero"/></g><path fill="#032068" d="M 327.460938 287.191406 C 327.691406 304.820312 315.695312 319.703125 309.605469 324.914062 L 300.269531 324.914062 C 307.207031 301.394531 318.683594 289.699219 325.113281 285.808594 C 326.183594 285.160156 327.441406 285.9375 327.460938 287.191406 Z M 327.460938 287.191406 " fill-opacity="1" fill-rule="nonzero"/><path fill="#ffffff" d="M 328.445312 229.355469 C 338.011719 265.398438 313.902344 308.085938 303.535156 323.976562 L 282.527344 323.976562 C 291.550781 255.972656 306.679688 239.445312 325.804688 228.277344 C 326.832031 227.675781 328.140625 228.207031 328.445312 229.355469 Z M 328.445312 229.355469 " fill-opacity="1" fill-rule="nonzero"/><path fill="#032068" d="M 326.273438 229.085938 C 326.777344 228.789062 327.398438 229.054688 327.542969 229.597656 C 332.253906 247.355469 328.683594 266.824219 322.585938 283.910156 C 316.597656 300.679688 308.214844 315.042969 303.027344 323.042969 L 283.59375 323.042969 C 288.085938 289.703125 294.054688 268.988281 301.207031 255.246094 C 308.40625 241.410156 316.824219 234.601562 326.273438 229.085938 Z M 329.347656 229.117188 C 328.882812 227.355469 326.882812 226.5625 325.332031 227.46875 C 315.65625 233.117188 306.949219 240.160156 299.550781 254.378906 C 292.175781 268.550781 286.121094 289.8125 281.601562 323.855469 L 281.460938 324.914062 L 304.039062 324.914062 L 304.316406 324.488281 C 309.523438 316.511719 318.183594 301.796875 324.34375 284.539062 C 330.5 267.296875 334.199219 247.402344 329.347656 229.117188 Z M 329.347656 229.117188 " fill-opacity="1" fill-rule="evenodd"/><path fill="#032068" d="M 294.574219 251.53125 C 302.835938 281.734375 293.378906 313.125 287.195312 324.914062 L 271.792969 324.914062 C 268.328125 288.101562 282.410156 261.332031 291.671875 250.808594 C 292.582031 249.769531 294.210938 250.195312 294.574219 251.53125 Z M 294.574219 251.53125 " fill-opacity="1" fill-rule="nonzero"/><path fill="#032068" d="M 315.367188 255.003906 L 320.394531 240.851562 L 322.152344 241.480469 L 310.640625 273.894531 L 318.203125 271.617188 L 318.742188 273.410156 L 309.867188 276.082031 L 299.394531 305.558594 L 308.820312 302.046875 L 309.46875 303.800781 L 298.578125 307.859375 L 292.742188 324.292969 L 290.984375 323.664062 L 302.835938 290.292969 L 298.453125 277.972656 L 300.214844 277.34375 L 303.828125 287.503906 L 314.308594 257.984375 L 311.042969 247.050781 L 312.832031 246.511719 Z M 315.367188 255.003906 " fill-opacity="1" fill-rule="evenodd"/><path fill="#ffffff" d="M 286.695312 275.648438 L 289.078125 262.519531 L 290.914062 262.855469 L 286.082031 289.503906 L 292.363281 286.1875 L 293.234375 287.84375 L 285.65625 291.84375 L 281.511719 314.699219 L 286.703125 310.609375 L 287.859375 312.082031 L 281.007812 317.476562 L 279.710938 324.613281 L 277.875 324.277344 L 281.195312 305.972656 L 275.71875 298.816406 L 277.199219 297.675781 L 281.648438 303.488281 L 286.277344 277.953125 L 281.84375 273.148438 L 283.214844 271.878906 Z M 286.695312 275.648438 " fill-opacity="1" fill-rule="evenodd"/><path fill="#ffffff" d="M 121.882812 103.789062 L 125.472656 104.660156 C 126.113281 104.816406 126.175781 105.699219 125.566406 105.945312 L 122.21875 107.292969 C 122.015625 107.375 121.867188 107.550781 121.816406 107.761719 L 120.886719 111.601562 C 120.734375 112.21875 119.894531 112.308594 119.617188 111.734375 L 117.886719 108.136719 C 117.804688 107.960938 117.648438 107.832031 117.460938 107.78125 L 113.242188 106.589844 C 112.613281 106.410156 112.574219 105.539062 113.183594 105.304688 L 117.023438 103.835938 C 117.210938 103.761719 117.355469 103.613281 117.421875 103.421875 L 118.875 99.191406 C 119.089844 98.570312 119.976562 98.589844 120.164062 99.21875 L 121.390625 103.324219 C 121.460938 103.554688 121.648438 103.730469 121.882812 103.789062 Z M 121.882812 103.789062 " fill-opacity="1" fill-rule="nonzero"/><path fill="#ffffff" d="M 93.175781 139.21875 L 94.101562 139.972656 C 94.613281 140.386719 94.292969 141.210938 93.636719 141.171875 L 92.480469 141.101562 C 92.261719 141.089844 92.050781 141.183594 91.914062 141.351562 L 91 142.476562 C 90.601562 142.96875 89.800781 142.6875 89.800781 142.050781 L 89.792969 140.5625 C 89.792969 140.367188 89.707031 140.183594 89.5625 140.054688 L 88.308594 138.957031 C 87.820312 138.527344 88.15625 137.722656 88.808594 137.773438 L 90.300781 137.890625 C 90.5 137.90625 90.699219 137.832031 90.835938 137.691406 L 92.019531 136.484375 C 92.480469 136.015625 93.273438 136.414062 93.171875 137.0625 L 92.933594 138.589844 C 92.898438 138.828125 92.988281 139.066406 93.175781 139.21875 Z M 93.175781 139.21875 " fill-opacity="1" fill-rule="nonzero"/><path fill="#004aad" d="M 317.257812 194.132812 L 314.570312 197.78125 C 314.40625 198.003906 314.136719 198.109375 313.878906 198.058594 L 310.554688 197.398438 C 309.839844 197.257812 309.40625 198.210938 309.957031 198.710938 L 312.570312 201.089844 C 312.761719 201.261719 312.851562 201.53125 312.808594 201.792969 L 312.152344 205.710938 C 312.027344 206.449219 312.886719 206.90625 313.371094 206.363281 L 316.054688 203.347656 C 316.210938 203.171875 316.441406 203.085938 316.667969 203.121094 L 319.773438 203.566406 C 320.472656 203.667969 320.867188 202.746094 320.335938 202.253906 L 318.027344 200.117188 C 317.839844 199.945312 317.753906 199.683594 317.792969 199.425781 L 318.519531 194.71875 C 318.640625 193.949219 317.710938 193.515625 317.257812 194.132812 Z M 317.257812 194.132812 " fill-opacity="1" fill-rule="nonzero"/><path fill="#ffffff" d="M 154.683594 97.488281 C 154.683594 92.085938 159.0625 87.707031 164.464844 87.707031 L 275.753906 87.707031 C 281.15625 87.707031 285.539062 92.085938 285.539062 97.488281 L 285.539062 315.101562 C 285.539062 320.503906 281.15625 324.882812 275.753906 324.882812 L 164.464844 324.882812 C 159.0625 324.882812 154.683594 320.503906 154.683594 315.101562 Z M 154.683594 97.488281 " fill-opacity="1" fill-rule="nonzero"/><path fill="#032068" d="M 153.867188 97.488281 C 153.867188 91.636719 158.613281 86.890625 164.464844 86.890625 L 275.753906 86.890625 C 281.609375 86.890625 286.351562 91.636719 286.351562 97.488281 L 286.351562 315.097656 C 286.351562 320.953125 281.609375 325.699219 275.753906 325.699219 L 164.464844 325.699219 C 158.613281 325.699219 153.867188 320.953125 153.867188 315.097656 Z M 164.464844 88.523438 C 159.511719 88.523438 155.5 92.539062 155.5 97.488281 L 155.5 315.097656 C 155.5 320.050781 159.511719 324.066406 164.464844 324.066406 L 275.753906 324.066406 C 280.707031 324.066406 284.722656 320.050781 284.722656 315.097656 L 284.722656 97.488281 C 284.722656 92.539062 280.707031 88.523438 275.753906 88.523438 Z M 164.464844 88.523438 " fill-opacity="1" fill-rule="evenodd"/><path fill="#5ce1e6" d="M 258.210938 174.917969 C 258.210938 196.078125 241.058594 213.234375 219.898438 213.234375 C 198.738281 213.234375 181.585938 196.078125 181.585938 174.917969 C 181.585938 153.757812 198.738281 136.605469 219.898438 136.605469 C 241.058594 136.605469 258.210938 153.757812 258.210938 174.917969 Z M 258.210938 174.917969 " fill-opacity="1" fill-rule="nonzero"/><path fill="#032068" d="M 194.09375 95.660156 L 189.851562 87.707031 L 250.371094 87.707031 L 245.386719 96.015625 C 243.910156 98.472656 241.257812 99.976562 238.394531 99.976562 L 201.285156 99.976562 C 198.273438 99.976562 195.507812 98.316406 194.09375 95.660156 Z M 194.09375 95.660156 " fill-opacity="1" fill-rule="nonzero"/><path fill="#032068" d="M 283.933594 92.613281 L 155.453125 92.613281 C 159.707031 88.363281 163.769531 87.570312 165.265625 87.707031 L 274.117188 87.707031 C 279.351562 87.707031 282.84375 90.980469 283.933594 92.613281 Z M 283.933594 92.613281 " fill-opacity="1" fill-rule="nonzero"/><path fill="#032068" d="M 283.835938 320.230469 L 156.3125 320.230469 C 160.734375 324.554688 163.289062 325.355469 164.84375 325.21875 L 275.300781 325.21875 C 280.742188 325.21875 282.699219 321.894531 283.835938 320.230469 Z M 283.835938 320.230469 " fill-opacity="1" fill-rule="nonzero"/><path fill="#004aad" d="M 173.433594 118.671875 C 173.433594 117.769531 174.160156 117.039062 175.0625 117.039062 L 218.476562 117.039062 C 219.375 117.039062 220.105469 117.769531 220.105469 118.671875 L 220.105469 120.410156 C 220.105469 121.3125 219.375 122.039062 218.476562 122.039062 L 175.0625 122.039062 C 174.160156 122.039062 173.433594 121.3125 173.433594 120.410156 Z M 173.433594 118.671875 " fill-opacity="1" fill-rule="nonzero"/><path fill="#032068" d="M 173.433594 228.722656 C 173.433594 227.820312 174.160156 227.089844 175.0625 227.089844 L 218.476562 227.089844 C 219.375 227.089844 220.105469 227.820312 220.105469 228.722656 L 220.105469 230.460938 C 220.105469 231.363281 219.375 232.089844 218.476562 232.089844 L 175.0625 232.089844 C 174.160156 232.089844 173.433594 231.363281 173.433594 230.460938 Z M 173.433594 228.722656 " fill-opacity="1" fill-rule="nonzero"/><path fill="#032068" d="M 173.433594 271.925781 C 173.433594 271.027344 174.160156 270.296875 175.0625 270.296875 L 201.148438 270.296875 C 202.046875 270.296875 202.777344 271.027344 202.777344 271.925781 L 202.777344 273.558594 C 202.777344 274.457031 202.046875 275.1875 201.148438 275.1875 L 175.0625 275.1875 C 174.160156 275.1875 173.433594 274.457031 173.433594 273.558594 Z M 173.433594 271.925781 " fill-opacity="1" fill-rule="nonzero"/><path fill="#5ce1e6" d="M 173.433594 240.949219 C 173.433594 240.050781 174.160156 239.320312 175.0625 239.320312 L 262.289062 239.320312 C 263.1875 239.320312 263.917969 240.050781 263.917969 240.949219 L 263.917969 257.253906 C 263.917969 258.152344 263.1875 258.882812 262.289062 258.882812 L 175.0625 258.882812 C 174.160156 258.882812 173.433594 258.152344 173.433594 257.253906 Z M 173.433594 240.949219 " fill-opacity="1" fill-rule="nonzero"/><path fill="#5ce1e6" d="M 173.433594 283.339844 C 173.433594 282.4375 174.160156 281.707031 175.0625 281.707031 L 262.289062 281.707031 C 263.1875 281.707031 263.917969 282.4375 263.917969 283.339844 L 263.917969 299.644531 C 263.917969 300.542969 263.1875 301.273438 262.289062 301.273438 L 175.0625 301.273438 C 174.160156 301.273438 173.433594 300.542969 173.433594 299.644531 Z M 173.433594 283.339844 " fill-opacity="1" fill-rule="nonzero"/><path fill="#032068" d="M 274.71875 99.363281 L 276.351562 99.363281 L 276.351562 106.03125 L 274.71875 106.03125 Z M 274.71875 99.363281 " fill-opacity="1" fill-rule="evenodd"/><path fill="#032068" d="M 270.554688 100.195312 L 272.183594 100.195312 L 272.183594 106.03125 L 270.554688 106.03125 Z M 270.554688 100.195312 " fill-opacity="1" fill-rule="evenodd"/><path fill="#032068" d="M 266.386719 101.863281 L 268.015625 101.863281 L 268.015625 106.027344 L 266.386719 106.027344 Z M 266.386719 101.863281 " fill-opacity="1" fill-rule="evenodd"/><path fill="#032068" d="M 262.21875 103.527344 L 263.847656 103.527344 L 263.847656 106.03125 L 262.21875 106.03125 Z M 262.21875 103.527344 " fill-opacity="1" fill-rule="evenodd"/><path fill="#ffffff" d="M 220.265625 175.378906 C 209.480469 175.378906 200.597656 183.628906 199.402344 194.25 C 199.25 195.59375 200.363281 196.691406 201.710938 196.691406 L 238.820312 196.691406 C 240.167969 196.691406 241.277344 195.59375 241.128906 194.25 C 239.933594 183.628906 231.050781 175.378906 220.265625 175.378906 Z M 220.265625 175.378906 " fill-opacity="1" fill-rule="nonzero"/><path fill="#ffffff" d="M 230.605469 162.84375 C 230.605469 168.382812 226.117188 172.875 220.578125 172.875 C 215.039062 172.875 210.546875 168.382812 210.546875 162.84375 C 210.546875 157.304688 215.039062 152.8125 220.578125 152.8125 C 226.117188 152.8125 230.605469 157.304688 230.605469 162.84375 Z M 230.605469 162.84375 " fill-opacity="1" fill-rule="nonzero"/><path fill="#efcb96" d="M 135.1875 195.328125 L 138.5 205.574219 C 139.824219 210.390625 135.1875 215.460938 124.148438 215.460938 C 115.316406 215.460938 113.550781 210.414062 113.996094 206.332031 L 116.640625 192.265625 C 114.433594 190.078125 112.667969 188.765625 112.667969 178.261719 C 112.667969 165.132812 119.734375 160.320312 128.121094 160.320312 C 136.511719 160.320312 143.578125 167.3125 143.578125 180.011719 C 143.578125 190.953125 137.691406 194.453125 135.1875 195.328125 Z M 135.1875 195.328125 " fill-opacity="1" fill-rule="nonzero"/><path fill="#032068" d="M 156.144531 185.730469 C 162.714844 192.585938 161.832031 209.453125 160.824219 214.59375 C 150.183594 206.703125 142.980469 204.089844 139.253906 203.789062 C 138.652344 203.742188 138.542969 205.136719 138.125 205.195312 L 134.960938 194.726562 C 139.714844 193.441406 142.742188 189.15625 143.175781 179.308594 C 143.519531 171.425781 139.574219 166.03125 137.554688 164.316406 C 130.636719 163.890625 127.179688 172.453125 125.019531 175.882812 C 123.289062 178.621094 121.992188 178.164062 121.558594 177.59375 C 119.398438 172.453125 115.507812 172.027344 114.644531 177.59375 C 113.953125 182.046875 117.238281 184.304688 118.964844 184.875 L 113.996094 206.710938 C 113.414062 206.742188 112.863281 204.820312 112.863281 203.960938 C 103.625 204.988281 93.476562 209.871094 90.445312 211.898438 C 89.148438 198.195312 101.675781 187.875 105.132812 179.308594 C 108.589844 170.742188 103.835938 166.457031 107.292969 160.890625 C 109.859375 156.765625 114.644531 156.179688 117.667969 155.324219 C 120.695312 154.46875 122.425781 151.039062 125.882812 149.328125 C 131.933594 147.1875 137.699219 152.46875 139.285156 156.179688 C 140.292969 156.039062 143.175781 156.4375 146.632812 159.179688 C 156.574219 166.03125 147.929688 177.167969 156.144531 185.730469 Z M 156.144531 185.730469 " fill-opacity="1" fill-rule="nonzero"/><path fill="#032068" d="M 126.40625 194.78125 C 131.558594 195.988281 134.5625 195.535156 135.421875 195.160156 L 136.710938 199.304688 C 131.214844 199.910156 127.550781 196.542969 126.40625 194.78125 Z M 126.40625 194.78125 " fill-opacity="1" fill-rule="nonzero"/><path fill="#004aad" d="M 125.25 211.496094 C 133.921875 211.496094 137.992188 206.152344 138.941406 203.480469 C 155.484375 203.480469 169.175781 214.929688 175.453125 222.941406 C 181.726562 230.957031 205.117188 273.3125 199.414062 290.484375 C 194.847656 304.222656 183.820312 306.320312 177.734375 305.367188 L 178.742188 323.574219 C 178.816406 324.878906 177.78125 325.972656 176.484375 325.972656 L 92.734375 325.972656 C 83.984375 326.542969 64.894531 326.773438 58.503906 323.109375 C 50.519531 318.53125 43.101562 295.0625 58.503906 248.699219 C 70.828125 211.609375 99.769531 203.101562 112.699219 203.480469 C 113.269531 206.152344 116.578125 211.496094 125.25 211.496094 Z M 125.25 211.496094 " fill-opacity="1" fill-rule="nonzero"/><path fill="#032068" d="M 83.707031 326.003906 C 69.953125 309.1875 55.414062 303.1875 49.863281 302.289062 C 49.863281 307.679688 52.546875 317.921875 57.382812 322.773438 C 61.25 326.652344 76.542969 326.546875 83.707031 326.003906 Z M 83.707031 326.003906 " fill-opacity="1" fill-rule="nonzero"/><path fill="#032068" d="M 190.078125 303.367188 C 199.105469 299.917969 200.644531 287.554688 200.289062 281.804688 C 192.121094 285.6875 181.125 298.875 176.648438 304.984375 C 177.363281 305.882812 181.054688 306.816406 190.078125 303.367188 Z M 190.078125 303.367188 " fill-opacity="1" fill-rule="nonzero"/><path fill="#032068" d="M 124.109375 264.15625 C 120.117188 265.871094 90.453125 279.800781 76.761719 286.476562 C 78.472656 283.617188 85.316406 279.035156 87.027344 277.320312 C 88.742188 275.601562 95.015625 255.570312 95.015625 258.429688 C 95.015625 261.292969 91.59375 274.457031 93.304688 274.457031 C 95.015625 274.457031 118.976562 264.15625 124.109375 264.15625 Z M 124.109375 264.15625 " fill-opacity="1" fill-rule="nonzero"/><path fill="#032068" d="M 136.089844 280.753906 C 111.902344 313.265625 92.164062 324.828125 85.316406 326.542969 L 97.296875 326.542969 C 117.835938 310.519531 131.714844 289.339844 136.089844 280.753906 Z M 136.089844 280.753906 " fill-opacity="1" fill-rule="nonzero"/><path fill="#032068" d="M 165.753906 275.03125 C 166.667969 286.019531 174.5 299.832031 178.304688 305.367188 L 178.304688 310.519531 C 169.632812 300.902344 166.324219 282.851562 165.753906 275.03125 Z M 165.753906 275.03125 " fill-opacity="1" fill-rule="nonzero"/><path fill="#032068" d="M 176.59375 259.574219 C 179.789062 261.40625 185.53125 265.683594 188.003906 267.589844 L 178.875 256.714844 C 178.417969 258.546875 177.164062 259.386719 176.59375 259.574219 Z M 176.59375 259.574219 " fill-opacity="1" fill-rule="nonzero"/><path fill="#ffffff" d="M 142.871094 238.457031 L 138.472656 281.472656 C 138.421875 281.972656 138.863281 282.382812 139.355469 282.292969 L 160.085938 278.558594 C 160.40625 278.503906 160.652344 278.25 160.699219 277.925781 L 166.757812 237.042969 C 166.828125 236.5625 166.441406 236.140625 165.957031 236.175781 L 143.566406 237.78125 C 143.203125 237.804688 142.910156 238.09375 142.871094 238.457031 Z M 142.871094 238.457031 " fill-opacity="1" fill-rule="nonzero"/><path fill="#032068" d="M 165.902344 235.421875 C 166.867188 235.351562 167.644531 236.195312 167.503906 237.152344 L 161.445312 278.039062 C 161.351562 278.679688 160.855469 279.191406 160.21875 279.304688 L 139.488281 283.039062 C 138.503906 283.214844 137.621094 282.394531 137.722656 281.394531 L 142.121094 238.378906 C 142.195312 237.648438 142.78125 237.078125 143.511719 237.027344 Z M 166.011719 236.929688 L 143.621094 238.535156 L 139.222656 281.550781 L 159.953125 277.816406 Z M 166.011719 236.929688 " fill-opacity="1" fill-rule="evenodd"/><path fill="#efcb96" d="M 172.601562 259.574219 L 165.753906 269.878906 C 156.628906 270.453125 154.914062 265.300781 156.628906 257.285156 C 157.996094 250.875 163.09375 250.800781 165.183594 251.5625 L 166.324219 246.984375 C 172.601562 252.136719 172.601562 257.097656 172.601562 259.574219 Z M 172.601562 259.574219 " fill-opacity="1" fill-rule="nonzero"/><path fill="#efcb96" d="M 132.667969 258.429688 C 131.296875 262.09375 128.671875 264.539062 127.53125 265.300781 L 134.949219 276.746094 C 137.230469 274.457031 140.082031 274.457031 146.359375 271.597656 C 152.632812 268.734375 154.34375 258.429688 152.632812 252.707031 C 151.265625 248.128906 143.316406 251.5625 140.082031 253.851562 L 140.652344 247.554688 C 136.660156 249.273438 134.378906 253.851562 132.667969 258.429688 Z M 132.667969 258.429688 " fill-opacity="1" fill-rule="nonzero"/><path fill="#ffffff" d="M 331.578125 151.277344 C 331.578125 166.585938 319.171875 178.996094 303.863281 178.996094 C 288.554688 178.996094 276.144531 166.585938 276.144531 151.277344 C 276.144531 135.96875 288.554688 123.5625 303.863281 123.5625 C 319.171875 123.5625 331.578125 135.96875 331.578125 151.277344 Z M 331.578125 151.277344 " fill-opacity="1" fill-rule="nonzero"/><path fill="#032068" d="M 303.863281 124.242188 C 288.929688 124.242188 276.828125 136.347656 276.828125 151.277344 C 276.828125 166.210938 288.929688 178.3125 303.863281 178.3125 C 318.792969 178.3125 330.898438 166.210938 330.898438 151.277344 C 330.898438 136.347656 318.792969 124.242188 303.863281 124.242188 Z M 275.464844 151.277344 C 275.464844 135.59375 288.179688 122.878906 303.863281 122.878906 C 319.546875 122.878906 332.261719 135.59375 332.261719 151.277344 C 332.261719 166.960938 319.546875 179.675781 303.863281 179.675781 C 288.179688 179.675781 275.464844 166.960938 275.464844 151.277344 Z M 275.464844 151.277344 " fill-opacity="1" fill-rule="evenodd"/><path fill="#032068" d="M 304.191406 134.121094 C 298.90625 134.121094 294.621094 138.476562 294.621094 143.847656 L 294.621094 150.507812 C 294.621094 151.296875 295.261719 151.9375 296.050781 151.9375 C 296.84375 151.9375 297.484375 151.296875 297.484375 150.507812 L 297.484375 143.664062 C 297.484375 139.898438 300.488281 136.847656 304.191406 136.847656 C 307.894531 136.847656 310.898438 139.898438 310.898438 143.664062 L 310.898438 150.148438 C 310.898438 150.941406 311.539062 151.582031 312.328125 151.582031 C 313.117188 151.582031 313.757812 150.941406 313.757812 150.148438 L 313.757812 143.847656 C 313.757812 138.476562 309.476562 134.121094 304.191406 134.121094 Z M 304.191406 134.121094 " fill-opacity="1" fill-rule="evenodd"/><path fill="#004aad" d="M 291.980469 150.683594 C 291.980469 149.554688 292.898438 148.636719 294.027344 148.636719 L 314.355469 148.636719 C 315.484375 148.636719 316.398438 149.554688 316.398438 150.683594 L 316.398438 165.730469 C 316.398438 166.859375 315.484375 167.777344 314.355469 167.777344 L 294.027344 167.777344 C 292.898438 167.777344 291.980469 166.859375 291.980469 165.730469 Z M 291.980469 150.683594 " fill-opacity="1" fill-rule="nonzero"/><path fill="#ffffff" d="M 305.746094 159 C 306.3125 158.542969 306.675781 157.84375 306.675781 157.0625 C 306.675781 155.691406 305.5625 154.578125 304.191406 154.578125 C 302.816406 154.578125 301.703125 155.691406 301.703125 157.0625 C 301.703125 157.914062 302.132812 158.667969 302.789062 159.113281 L 302.234375 161.445312 C 302.152344 161.789062 302.414062 162.125 302.773438 162.125 L 305.792969 162.125 C 306.148438 162.125 306.410156 161.789062 306.328125 161.445312 Z M 305.746094 159 " fill-opacity="1" fill-rule="evenodd"/></svg>