<svg xmlns="http://www.w3.org/2000/svg" xmlns:xlink="http://www.w3.org/1999/xlink" width="500" zoomAndPan="magnify" viewBox="0 0 375 374.999991" height="500" preserveAspectRatio="xMidYMid meet" version="1.0"><rect x="-37.5" width="450" fill="#ffffff" y="-37.499999" height="449.999989" fill-opacity="1"/><rect x="-37.5" width="450" fill="#ffffff" y="-37.499999" height="449.999989" fill-opacity="1"/><path fill="#333333" d="M 345.640625 282.667969 C 346.851562 283.820312 347.035156 285.589844 346.082031 286.886719 L 341.542969 293.046875 C 340.941406 293.863281 339.980469 294.34375 338.976562 294.34375 C 338.226562 294.34375 337.511719 294.070312 336.964844 293.582031 C 330.511719 287.792969 325.988281 280.289062 323.871094 271.878906 C 323.65625 271.03125 323.808594 270.164062 324.296875 269.421875 C 324.792969 268.675781 325.59375 268.164062 326.476562 268.035156 L 334.023438 266.890625 C 334.183594 266.867188 334.335938 266.851562 334.496094 266.851562 C 335.898438 266.851562 337.15625 267.835938 337.550781 269.246094 C 338.988281 274.371094 341.785156 279.015625 345.640625 282.667969 Z M 9.472656 215.265625 C 4.75 215.265625 0.910156 219.109375 0.910156 223.835938 C 0.910156 228.566406 4.75 232.410156 9.472656 232.410156 C 14.195312 232.410156 18.03125 228.566406 18.03125 223.835938 C 18.03125 219.109375 14.195312 215.265625 9.472656 215.265625 Z M 375.582031 204.636719 C 375.582031 206.558594 375.558594 208.3125 375.308594 209.957031 C 375.164062 211.53125 374.820312 213.285156 374.273438 215.210938 C 372.773438 220.460938 369.96875 225.460938 365.945312 230.074219 C 365.453125 230.640625 364.734375 230.96875 363.972656 230.96875 C 363.273438 230.96875 362.617188 230.699219 362.117188 230.210938 L 359.976562 228.121094 C 359.007812 227.175781 358.917969 225.660156 359.761719 224.59375 C 362.730469 220.847656 364.84375 216.796875 365.863281 212.878906 C 366.625 209.988281 366.699219 207.046875 366.632812 205.09375 C 366.449219 202.492188 365.785156 200.152344 364.660156 198.125 C 362.617188 194.332031 358.527344 191.117188 352.832031 188.828125 C 348.414062 187.011719 343.066406 185.6875 336.003906 184.632812 C 330.277344 183.804688 324.546875 183.398438 318.484375 182.972656 L 317.945312 182.933594 L 314.835938 182.726562 L 314.652344 183.285156 C 299.390625 229.464844 281.382812 269.125 261.113281 301.152344 L 261.03125 301.28125 L 247.953125 374.472656 L 109.984375 374.472656 L 96.90625 301.28125 L 96.832031 301.152344 C 86.242188 284.421875 76.136719 265.304688 66.765625 244.335938 L 66.242188 243.160156 L 65.464844 244.191406 C 63.429688 246.882812 61.304688 249.480469 59.25 252 C 56.902344 254.875 54.679688 257.59375 52.582031 260.441406 C 48.738281 265.480469 45.835938 270.375 43.734375 275.402344 C 41.5 280.640625 40.265625 286.28125 40.175781 291.726562 C 40.03125 301.175781 44.25 310.648438 51.183594 316.449219 C 52.476562 317.53125 52.730469 319.386719 51.746094 320.667969 L 48.3125 325.164062 C 47.730469 325.921875 46.847656 326.355469 45.894531 326.355469 C 45.066406 326.355469 44.304688 326.027344 43.742188 325.433594 C 35.210938 316.375 30.699219 303.632812 31.699219 291.347656 C 32.566406 279.761719 37.699219 267.921875 46.953125 256.148438 C 48.804688 253.722656 50.742188 251.378906 52.605469 249.125 C 54.65625 246.644531 56.589844 244.304688 58.433594 241.847656 C 59.757812 240.078125 61.304688 237.984375 62.691406 235.863281 L 62.914062 235.519531 L 62.753906 235.144531 C 46.035156 195.851562 34.859375 157.632812 28.421875 132.492188 C 23.480469 113.183594 21.179688 100.972656 21.078125 100.464844 L 20.941406 99.730469 L 20.914062 99.738281 C 16.714844 79.621094 15.125 54.253906 14.957031 51.394531 C 14.683594 49.539062 15.277344 47.726562 16.546875 46.457031 C 17.613281 45.398438 19.023438 44.820312 20.523438 44.820312 C 21.109375 44.820312 21.695312 44.910156 22.261719 45.085938 L 22.382812 45.125 C 22.277344 44.871094 22.3125 44.582031 22.488281 44.363281 C 22.511719 44.339844 22.519531 44.308594 22.542969 44.285156 C 22.839844 43.988281 23.320312 43.988281 23.617188 44.285156 L 22.726562 43.386719 C 21.660156 42.3125 21.078125 40.890625 21.085938 39.375 C 21.09375 37.855469 21.6875 36.445312 22.753906 35.378906 C 23.820312 34.320312 25.230469 33.738281 26.730469 33.738281 C 27.25 33.738281 27.769531 33.808594 28.269531 33.953125 L 28.804688 34.105469 C 28.5 33.921875 28.363281 33.5625 28.476562 33.222656 C 28.484375 33.207031 28.476562 33.191406 28.484375 33.175781 C 28.523438 33.082031 28.574219 33 28.644531 32.9375 C 28.6875 32.894531 28.75 32.855469 28.804688 32.824219 C 28.828125 32.808594 28.839844 32.792969 28.863281 32.785156 C 29.023438 32.710938 29.214844 32.695312 29.398438 32.75 C 29.429688 32.753906 29.449219 32.753906 29.480469 32.761719 C 29.90625 32.9375 30.3125 33.160156 30.691406 33.410156 L 30.046875 32.351562 C 28.683594 30.109375 29.023438 27.25 30.890625 25.398438 C 31.957031 24.335938 33.367188 23.757812 34.867188 23.757812 C 35.597656 23.757812 36.304688 23.894531 36.984375 24.167969 L 37.96875 24.566406 L 37.96875 24.535156 L 37.480469 24.046875 C 37.320312 23.886719 37.25 23.671875 37.265625 23.46875 C 37.273438 23.375 37.289062 23.292969 37.328125 23.207031 C 37.363281 23.125 37.410156 23.039062 37.488281 22.972656 C 37.785156 22.675781 38.265625 22.675781 38.5625 22.972656 L 38.019531 22.429688 L 36.824219 21.226562 C 35.757812 20.152344 35.179688 18.730469 35.1875 17.214844 C 35.195312 15.699219 35.789062 14.285156 36.855469 13.21875 C 37.921875 12.160156 39.339844 11.578125 40.839844 11.578125 C 42.355469 11.578125 43.777344 12.175781 44.851562 13.25 L 52.972656 21.441406 L 53.40625 21.316406 C 94.019531 9.566406 136.050781 3.609375 178.324219 3.609375 C 220.941406 3.609375 263.300781 9.65625 304.226562 21.59375 L 304.660156 21.722656 L 313.070312 13.234375 C 314.136719 12.160156 315.558594 11.5625 317.082031 11.5625 C 318.585938 11.5625 320 12.152344 321.066406 13.203125 C 322.140625 14.269531 322.734375 15.691406 322.734375 17.199219 C 322.742188 18.710938 322.15625 20.136719 321.097656 21.210938 L 319.367188 22.957031 C 319.664062 22.660156 320.144531 22.660156 320.441406 22.957031 C 320.511719 23.027344 320.566406 23.109375 320.601562 23.195312 C 320.640625 23.277344 320.65625 23.367188 320.664062 23.453125 C 320.679688 23.660156 320.609375 23.871094 320.449219 24.03125 L 319.96875 24.519531 L 319.96875 24.558594 L 320.945312 24.160156 C 321.617188 23.886719 322.332031 23.75 323.0625 23.75 C 324.5625 23.75 325.980469 24.328125 327.039062 25.390625 C 328.898438 27.242188 329.25 30.09375 327.882812 32.34375 L 327.246094 33.402344 C 327.625 33.152344 328.03125 32.9375 328.457031 32.753906 C 328.488281 32.75 328.507812 32.75 328.539062 32.742188 C 328.722656 32.6875 328.90625 32.710938 329.074219 32.777344 C 329.097656 32.785156 329.109375 32.800781 329.132812 32.816406 C 329.195312 32.847656 329.246094 32.886719 329.292969 32.929688 C 329.363281 33 329.414062 33.074219 329.453125 33.167969 C 329.460938 33.183594 329.460938 33.199219 329.460938 33.214844 C 329.574219 33.554688 329.429688 33.914062 329.132812 34.097656 L 329.667969 33.945312 C 330.167969 33.808594 330.6875 33.730469 331.207031 33.730469 C 332.707031 33.730469 334.117188 34.3125 335.183594 35.371094 C 336.253906 36.4375 336.851562 37.855469 336.851562 39.367188 C 336.851562 40.878906 336.269531 42.304688 335.210938 43.378906 L 334.3125 44.277344 C 334.609375 43.980469 335.089844 43.980469 335.386719 44.269531 C 335.386719 44.269531 335.386719 44.277344 335.394531 44.277344 C 335.417969 44.300781 335.425781 44.324219 335.441406 44.347656 C 335.617188 44.566406 335.652344 44.863281 335.546875 45.109375 L 335.667969 45.070312 C 336.234375 44.886719 336.8125 44.796875 337.40625 44.796875 C 338.90625 44.796875 340.316406 45.375 341.382812 46.4375 C 342.652344 47.703125 343.25 49.515625 342.980469 51.300781 C 342.804688 54.261719 341.183594 80.171875 336.863281 100.425781 L 337.703125 99.832031 L 337.300781 101.285156 L 336.859375 100.449219 C 336.835938 100.570312 334.488281 113.039062 329.515625 132.476562 C 326.117188 145.75 322.308594 159.132812 318.195312 172.265625 L 317.90625 173.203125 L 318.882812 173.257812 C 325.492188 173.628906 331.554688 174.242188 337.421875 175.117188 C 343.101562 176.023438 349.8125 177.335938 356.441406 180.105469 C 359.996094 181.597656 362.976562 183.300781 365.550781 185.296875 C 368.679688 187.722656 371.179688 190.660156 372.777344 193.785156 C 374.460938 197.019531 375.429688 200.769531 375.582031 204.636719 Z M 244.707031 222.539062 L 233.753906 223.746094 L 233.738281 224.417969 C 233.457031 238.515625 223.113281 250.105469 209.144531 251.992188 C 208.070312 252.152344 207.019531 252.167969 206.226562 252.167969 L 204.894531 252.152344 C 205.289062 252.1875 205.59375 252.515625 205.585938 252.914062 C 205.585938 252.914062 205.585938 252.914062 205.585938 252.921875 C 205.585938 252.921875 205.585938 252.921875 205.585938 252.929688 C 205.585938 253.027344 205.5625 253.113281 205.523438 253.195312 C 205.496094 253.273438 205.449219 253.332031 205.394531 253.394531 C 205.386719 253.402344 205.386719 253.410156 205.378906 253.425781 C 205.257812 253.554688 205.089844 253.636719 204.902344 253.652344 C 204.878906 253.652344 204.847656 253.667969 204.824219 253.667969 C 204.816406 253.667969 204.816406 253.667969 204.808594 253.667969 C 204.582031 253.660156 204.359375 253.636719 204.132812 253.628906 L 204.140625 253.722656 L 205.875 272.863281 L 221.550781 262.582031 L 221.644531 262.429688 C 221.75 262.246094 232.703125 243.578125 243.96875 223.84375 Z M 273.996094 162.953125 C 276.925781 154.003906 280.996094 141.175781 285.769531 125.855469 C 290.964844 109.171875 295.375 94.835938 295.414062 94.691406 L 294.796875 95.222656 L 294.828125 93.707031 L 295.4375 94.378906 C 295.429688 94.324219 294.863281 88.726562 294.21875 80.476562 L 294.164062 79.8125 L 293.492188 79.773438 C 292.890625 79.746094 292.320312 79.644531 291.789062 79.484375 C 254.976562 68.3125 216.804688 62.65625 178.332031 62.65625 C 139.859375 62.65625 101.699219 68.3125 64.886719 79.484375 C 64.695312 79.539062 64.511719 79.585938 64.320312 79.621094 L 63.765625 79.746094 L 63.71875 80.308594 C 63.066406 88.652344 62.492188 94.332031 62.484375 94.386719 L 62.46875 94.539062 L 62.515625 94.683594 C 62.5625 94.828125 66.964844 109.164062 72.160156 125.847656 C 78.328125 145.636719 86.265625 170.703125 89.007812 177.703125 C 93.84375 190.027344 134.566406 259.464844 136.292969 262.414062 L 136.386719 262.566406 L 152.328125 273.023438 L 149.503906 243.105469 L 144.65625 192.007812 C 142.53125 168.832031 159.632812 148.238281 182.789062 146.109375 C 184.082031 145.996094 185.394531 145.933594 186.679688 145.933594 C 207.621094 145.933594 225.566406 161.574219 228.421875 182.316406 C 228.511719 182.949219 228.582031 183.597656 228.65625 184.238281 L 233.199219 217.867188 L 248.308594 216.203125 L 248.5 215.859375 C 260.269531 195.082031 267.140625 182.246094 268.921875 177.710938 C 269.308594 176.710938 269.828125 175.292969 270.460938 173.476562 L 270.671875 172.867188 L 270.101562 172.554688 C 267.300781 171.039062 264.730469 169.34375 262.460938 167.539062 C 256.949219 163.230469 252.507812 157.480469 249.960938 151.324219 C 248.492188 147.808594 247.570312 144.609375 247.136719 141.535156 C 246.574219 138.117188 246.40625 134.726562 246.632812 131.445312 C 246.757812 129.113281 247.082031 126.742188 247.617188 124.398438 L 247.777344 123.707031 L 247.089844 123.5 C 244.867188 122.835938 242.917969 121.882812 241.300781 120.679688 L 240.097656 119.863281 C 239.929688 119.71875 239.710938 119.511719 239.488281 119.304688 C 239.488281 119.304688 238.78125 118.640625 238.589844 118.460938 C 238.164062 118.0625 237.730469 117.652344 237.332031 117.238281 C 237.265625 117.164062 237.195312 117.085938 237.128906 117.003906 C 236.921875 116.742188 236.710938 116.476562 236.503906 116.21875 C 235.644531 115.148438 234.757812 114.042969 234.128906 112.894531 C 232.101562 109.828125 230.890625 106.554688 229.824219 103.46875 C 228.253906 98.480469 227.339844 93.1875 227.042969 87.308594 C 227.003906 86.570312 227.265625 85.867188 227.773438 85.335938 C 228.277344 84.800781 228.960938 84.511719 229.6875 84.511719 C 229.785156 84.511719 229.882812 84.519531 229.984375 84.527344 L 235.511719 85.128906 C 236.230469 85.203125 236.863281 85.5625 237.296875 86.128906 C 237.738281 86.699219 237.921875 87.40625 237.820312 88.125 C 237.203125 92.410156 237.25 96.992188 237.9375 101.394531 C 239.222656 108.035156 241.636719 112.792969 245.109375 115.578125 C 246.140625 116.515625 247.394531 117.292969 248.8125 117.855469 L 249.511719 118.140625 L 249.796875 117.4375 C 250.527344 115.636719 251.347656 113.9375 252.242188 112.398438 L 252.996094 111.109375 C 253.160156 110.828125 253.3125 110.558594 253.589844 110.199219 C 254.144531 109.40625 254.746094 108.746094 255.5625 108.027344 C 256.941406 106.816406 258.425781 105.871094 260.09375 105.128906 C 261.441406 104.558594 263.300781 103.894531 265.554688 103.839844 C 265.683594 103.832031 265.777344 103.832031 265.875 103.832031 C 266.242188 103.832031 266.644531 103.871094 267.085938 103.957031 C 267.597656 104.007812 268.097656 104.152344 268.691406 104.398438 C 269.746094 104.785156 270.773438 105.550781 271.464844 106.441406 C 271.832031 106.832031 272.023438 107.203125 272.234375 107.632812 L 272.363281 107.875 C 272.609375 108.308594 272.777344 108.746094 272.898438 109.269531 C 273.269531 110.519531 273.398438 111.589844 273.285156 112.496094 C 273.074219 114.433594 272.1875 116.269531 270.644531 117.964844 C 269.492188 119.238281 268.136719 120.296875 266.394531 121.3125 C 265.722656 121.675781 264.898438 122.113281 263.933594 122.464844 L 261.511719 123.171875 L 259.277344 123.820312 C 259.164062 123.851562 259.042969 123.882812 258.921875 123.898438 L 256.542969 124.238281 C 255.957031 124.363281 255.363281 124.421875 254.679688 124.453125 L 254.039062 124.476562 L 253.953125 125.117188 C 253.671875 127.257812 253.582031 129.433594 253.695312 131.574219 C 253.777344 134.320312 254.214844 137.140625 254.976562 139.933594 C 255.699219 142.699219 256.679688 145.316406 257.90625 147.710938 C 260.253906 152.492188 263.726562 156.71875 268.222656 160.253906 C 269.636719 161.359375 271.160156 162.390625 272.875 163.398438 L 273.691406 163.878906 Z M 256.5 118.832031 C 257.730469 118.726562 258.980469 118.519531 260.214844 118.214844 L 262.21875 117.710938 C 262.757812 117.542969 263.316406 117.300781 264.015625 116.949219 C 264.898438 116.476562 266.148438 115.707031 267.132812 114.675781 C 267.945312 113.859375 268.519531 112.894531 268.648438 112.078125 C 268.84375 111.269531 268.242188 109.75 267.847656 109.332031 C 267.382812 108.765625 266.726562 108.515625 265.632812 108.507812 L 265.625 108.507812 C 264.601562 108.507812 263.324219 108.867188 262.105469 109.476562 C 260.976562 110.035156 259.855469 110.828125 258.949219 111.703125 C 258.675781 111.960938 258.167969 112.488281 257.855469 113.023438 C 257.730469 113.199219 257.609375 113.449219 257.425781 113.824219 L 256.933594 114.859375 C 256.511719 115.738281 256.117188 116.707031 255.714844 117.8125 L 255.300781 118.941406 Z M 130.027344 106.777344 L 123.261719 103.199219 C 122.8125 102.964844 122.324219 102.84375 121.820312 102.84375 C 120.777344 102.84375 119.78125 103.375 119.15625 104.269531 C 116.109375 108.628906 111.941406 112.085938 107.097656 114.265625 C 105.574219 114.953125 104.8125 116.5625 105.285156 118.101562 L 107.53125 125.40625 C 107.9375 126.734375 109.179688 127.65625 110.550781 127.65625 C 110.953125 127.65625 111.339844 127.578125 111.722656 127.417969 C 119.71875 124.078125 126.460938 118.480469 131.222656 111.238281 C 131.695312 110.519531 131.832031 109.660156 131.617188 108.820312 C 131.40625 107.9375 130.816406 107.195312 130.027344 106.777344 Z M 178.972656 82.742188 C 174.25 82.742188 170.410156 86.585938 170.410156 91.3125 C 170.410156 96.039062 174.25 99.882812 178.972656 99.882812 C 183.695312 99.882812 187.535156 96.039062 187.535156 91.3125 C 187.535156 86.59375 183.6875 82.742188 178.972656 82.742188 Z M 178.972656 82.742188 " fill-opacity="1" fill-rule="nonzero"/><path fill="#2a4dcc" d="M 285.046875 125.636719 C 284.816406 126.359375 284.597656 127.085938 284.367188 127.816406 C 284.308594 128.015625 284.246094 128.210938 284.179688 128.417969 C 284.003906 128.976562 283.828125 129.539062 283.652344 130.105469 C 283.585938 130.332031 283.507812 130.5625 283.441406 130.789062 C 283.28125 131.300781 283.121094 131.804688 282.960938 132.316406 C 282.875 132.574219 282.800781 132.824219 282.714844 133.085938 C 282.234375 134.601562 281.765625 136.128906 281.285156 137.652344 C 281.277344 137.691406 281.261719 137.722656 281.253906 137.761719 C 281.023438 138.5 280.789062 139.230469 280.558594 139.972656 C 280.523438 140.09375 280.484375 140.214844 280.445312 140.335938 C 280.242188 140.992188 280.035156 141.648438 279.828125 142.304688 C 279.789062 142.433594 279.746094 142.5625 279.707031 142.695312 C 279.472656 143.433594 279.242188 144.164062 279.007812 144.898438 C 279 144.914062 279 144.929688 278.992188 144.941406 C 278.238281 147.335938 277.484375 149.6875 276.75 151.972656 C 275.53125 155.792969 274.359375 159.425781 273.277344 162.71875 C 271.929688 166.84375 270.726562 170.449219 269.75 173.226562 C 269.605469 173.628906 269.476562 174.019531 269.339844 174.386719 C 269.316406 174.453125 269.292969 174.523438 269.273438 174.582031 C 269.164062 174.882812 269.066406 175.164062 268.96875 175.4375 C 268.9375 175.527344 268.90625 175.613281 268.867188 175.703125 C 268.777344 175.949219 268.691406 176.183594 268.609375 176.40625 C 268.578125 176.480469 268.546875 176.566406 268.527344 176.640625 C 268.417969 176.925781 268.320312 177.191406 268.222656 177.4375 C 268.152344 177.617188 268.070312 177.816406 267.984375 178.023438 C 267.953125 178.089844 267.921875 178.160156 267.894531 178.230469 C 267.832031 178.375 267.765625 178.527344 267.695312 178.679688 C 267.65625 178.761719 267.617188 178.855469 267.574219 178.945312 C 267.503906 179.097656 267.4375 179.25 267.359375 179.417969 C 267.3125 179.515625 267.269531 179.609375 267.222656 179.707031 C 267.148438 179.875 267.0625 180.058594 266.972656 180.242188 C 266.925781 180.339844 266.878906 180.433594 266.835938 180.539062 C 266.734375 180.746094 266.628906 180.964844 266.523438 181.179688 C 266.484375 181.261719 266.445312 181.339844 266.398438 181.421875 C 266.246094 181.730469 266.09375 182.042969 265.9375 182.371094 C 265.898438 182.4375 265.859375 182.515625 265.828125 182.589844 C 265.699219 182.851562 265.570312 183.109375 265.433594 183.382812 C 265.371094 183.511719 265.304688 183.644531 265.234375 183.773438 C 265.121094 183.992188 265.007812 184.222656 264.890625 184.449219 C 264.816406 184.605469 264.738281 184.757812 264.65625 184.910156 C 264.542969 185.128906 264.425781 185.359375 264.304688 185.585938 C 264.222656 185.746094 264.136719 185.90625 264.054688 186.066406 C 263.933594 186.304688 263.804688 186.554688 263.671875 186.800781 C 263.589844 186.960938 263.511719 187.113281 263.429688 187.273438 C 263.269531 187.570312 263.109375 187.875 262.949219 188.179688 C 262.890625 188.292969 262.835938 188.402344 262.773438 188.515625 C 262.554688 188.925781 262.332031 189.347656 262.105469 189.773438 C 262.011719 189.949219 261.914062 190.132812 261.816406 190.316406 C 261.679688 190.574219 261.53125 190.832031 261.394531 191.101562 C 261.28125 191.304688 261.167969 191.519531 261.054688 191.734375 C 260.917969 191.984375 260.785156 192.230469 260.648438 192.488281 C 260.527344 192.710938 260.40625 192.929688 260.292969 193.160156 C 260.160156 193.402344 260.023438 193.648438 259.886719 193.898438 C 259.765625 194.128906 259.636719 194.355469 259.507812 194.59375 C 259.363281 194.851562 259.21875 195.121094 259.074219 195.386719 C 258.949219 195.613281 258.828125 195.835938 258.699219 196.066406 C 258.539062 196.363281 258.371094 196.660156 258.210938 196.957031 C 258 197.355469 257.777344 197.742188 257.558594 198.148438 C 257.398438 198.4375 257.246094 198.71875 257.085938 199.007812 C 256.941406 199.265625 256.804688 199.527344 256.65625 199.785156 C 256.519531 200.039062 256.375 200.296875 256.238281 200.546875 C 256.078125 200.832031 255.925781 201.121094 255.765625 201.402344 C 255.636719 201.632812 255.507812 201.867188 255.378906 202.097656 C 255.210938 202.402344 255.035156 202.707031 254.867188 203.019531 C 254.753906 203.226562 254.640625 203.429688 254.523438 203.636719 C 254.335938 203.972656 254.152344 204.308594 253.960938 204.644531 C 253.878906 204.804688 253.785156 204.957031 253.695312 205.117188 C 252.996094 206.375 252.277344 207.648438 251.5625 208.929688 C 251.484375 209.066406 251.410156 209.203125 251.328125 209.347656 C 251.113281 209.722656 250.90625 210.097656 250.695312 210.46875 C 250.585938 210.660156 250.480469 210.851562 250.375 211.035156 C 250.167969 211.390625 249.960938 211.757812 249.765625 212.117188 C 249.664062 212.292969 249.566406 212.46875 249.46875 212.644531 C 249.246094 213.03125 249.027344 213.429688 248.804688 213.816406 C 248.730469 213.945312 248.660156 214.078125 248.585938 214.207031 C 248.339844 214.632812 248.097656 215.066406 247.851562 215.496094 L 268.25 213.246094 L 271.414062 212.894531 C 272.601562 212.765625 273.675781 212.261719 274.535156 211.5 C 275.375 210.75 275.996094 209.761719 276.273438 208.625 L 283.484375 210.378906 C 283.003906 212.351562 282.074219 214.136719 280.828125 215.632812 C 279.707031 216.972656 278.3125 218.058594 276.757812 218.867188 C 275.367188 219.589844 273.84375 220.09375 272.226562 220.277344 L 270.484375 220.464844 L 262.78125 221.3125 L 243.3125 223.457031 C 233.777344 240.164062 224.566406 255.925781 221.824219 260.613281 C 221.796875 260.660156 221.765625 260.714844 221.742188 260.761719 C 221.589844 261.027344 221.460938 261.242188 221.351562 261.421875 C 221.308594 261.5 221.269531 261.574219 221.230469 261.636719 C 221.085938 261.886719 221.003906 262.027344 221.003906 262.027344 L 206.539062 271.511719 L 205.113281 298.210938 C 205.023438 299.949219 202.820312 300.632812 201.753906 299.261719 L 200.269531 297.339844 L 193.042969 327.125 L 173.890625 301.519531 L 172.179688 303.363281 C 171.308594 304.292969 169.792969 304.117188 169.167969 303.003906 L 151.445312 271.511719 L 136.980469 262.027344 C 136.980469 262.027344 94.613281 189.828125 89.746094 177.421875 C 87.074219 170.585938 79.335938 146.1875 72.921875 125.621094 L 27.714844 132.664062 C 27.90625 133.398438 28.09375 134.144531 28.285156 134.894531 C 28.339844 135.113281 28.398438 135.335938 28.453125 135.546875 C 28.597656 136.097656 28.742188 136.648438 28.886719 137.203125 C 28.957031 137.453125 29.015625 137.707031 29.085938 137.964844 C 29.238281 138.554688 29.398438 139.148438 29.558594 139.75 C 29.609375 139.949219 29.664062 140.140625 29.71875 140.34375 C 29.929688 141.152344 30.152344 141.96875 30.371094 142.792969 C 30.394531 142.882812 30.425781 142.984375 30.449219 143.074219 C 30.648438 143.800781 30.84375 144.539062 31.050781 145.277344 C 31.113281 145.507812 31.179688 145.734375 31.242188 145.964844 C 31.417969 146.613281 31.597656 147.269531 31.78125 147.925781 C 31.84375 148.136719 31.902344 148.351562 31.957031 148.566406 C 32.1875 149.390625 32.421875 150.210938 32.65625 151.050781 C 32.664062 151.089844 32.679688 151.128906 32.6875 151.171875 C 32.945312 152.097656 33.214844 153.027344 33.480469 153.964844 C 33.511719 154.070312 33.542969 154.175781 33.570312 154.285156 C 33.808594 155.09375 34.042969 155.910156 34.28125 156.730469 C 34.332031 156.914062 34.386719 157.097656 34.441406 157.28125 C 34.675781 158.089844 34.914062 158.898438 35.15625 159.714844 C 35.195312 159.84375 35.230469 159.980469 35.269531 160.109375 C 35.847656 162.0625 36.4375 164.046875 37.054688 166.050781 C 37.074219 166.132812 37.105469 166.21875 37.128906 166.308594 C 37.410156 167.226562 37.691406 168.148438 37.972656 169.078125 C 38.011719 169.207031 38.058594 169.335938 38.097656 169.46875 C 39.046875 172.554688 40.046875 175.710938 41.089844 178.929688 C 41.113281 178.992188 41.128906 179.050781 41.152344 179.113281 C 41.484375 180.144531 41.820312 181.179688 42.164062 182.222656 C 42.179688 182.277344 42.203125 182.332031 42.21875 182.382812 C 43.296875 185.6875 44.433594 189.042969 45.605469 192.441406 C 45.621094 192.480469 45.636719 192.519531 45.644531 192.566406 C 47.214844 197.117188 48.867188 201.753906 50.597656 206.449219 C 50.601562 206.472656 50.617188 206.503906 50.625 206.527344 C 52.363281 211.238281 54.183594 216.011719 56.085938 220.824219 C 56.09375 220.832031 56.09375 220.847656 56.101562 220.855469 C 57.527344 224.453125 58.996094 228.078125 60.511719 231.707031 C 60.535156 231.753906 60.550781 231.804688 60.574219 231.851562 C 61.070312 233.042969 61.570312 234.238281 62.082031 235.429688 C 62.082031 235.429688 62.082031 235.429688 62.082031 235.4375 C 62.347656 235.03125 62.617188 234.621094 62.875 234.214844 C 64.335938 231.761719 65.683594 229.273438 66.636719 226.726562 C 67.679688 224.203125 68.289062 221.59375 68.527344 219.019531 C 68.875 216.449219 68.65625 213.878906 68.191406 211.230469 C 67.460938 207.160156 66.003906 203.050781 64.214844 198.847656 C 63.347656 196.804688 64.398438 194.457031 66.507812 193.777344 L 71.640625 192.105469 C 73.765625 191.414062 76.027344 192.71875 76.484375 194.90625 C 77.5 199.710938 78.542969 204.726562 78.863281 210.050781 C 79.320312 216.90625 77.949219 224.273438 75.03125 230.289062 C 72.511719 235.597656 69.386719 240.261719 66.089844 244.632812 C 67.148438 246.996094 68.222656 249.359375 69.320312 251.722656 C 69.378906 251.847656 69.433594 251.96875 69.492188 252.089844 C 70.582031 254.4375 71.695312 256.789062 72.828125 259.136719 C 72.828125 259.144531 72.835938 259.152344 72.835938 259.160156 C 73.964844 261.5 75.121094 263.832031 76.296875 266.167969 C 76.371094 266.320312 76.449219 266.464844 76.523438 266.617188 C 77.6875 268.933594 78.878906 271.238281 80.082031 273.539062 C 80.089844 273.554688 80.097656 273.570312 80.105469 273.585938 C 81.308594 275.882812 82.542969 278.167969 83.789062 280.449219 C 83.882812 280.617188 83.972656 280.792969 84.074219 280.960938 C 85.320312 283.226562 86.585938 285.480469 87.875 287.722656 C 87.882812 287.738281 87.886719 287.753906 87.894531 287.769531 C 89.183594 290.011719 90.492188 292.230469 91.820312 294.441406 C 91.925781 294.625 92.039062 294.800781 92.148438 294.984375 C 93.480469 297.195312 94.835938 299.390625 96.214844 301.570312 L 109.375 375.242188 C 109.375 375.242188 129.84375 375.242188 150.628906 375.242188 C 158.878906 375.242188 164.105469 375.242188 164.105469 375.242188 L 248.613281 375.242188 L 261.777344 301.570312 C 263.214844 299.300781 264.625 297.003906 266.019531 294.695312 C 266.117188 294.527344 266.21875 294.367188 266.316406 294.199219 C 267.679688 291.925781 269.027344 289.628906 270.347656 287.328125 C 270.421875 287.199219 270.5 287.0625 270.574219 286.921875 C 271.882812 284.628906 273.179688 282.308594 274.453125 279.984375 C 274.503906 279.894531 274.558594 279.792969 274.605469 279.703125 C 275.882812 277.351562 277.140625 274.996094 278.382812 272.625 C 278.472656 272.449219 278.566406 272.265625 278.664062 272.09375 C 279.898438 269.71875 281.117188 267.332031 282.3125 264.945312 C 282.351562 264.878906 282.378906 264.800781 282.417969 264.734375 C 283.605469 262.355469 284.765625 259.976562 285.90625 257.589844 C 285.976562 257.441406 286.050781 257.289062 286.121094 257.144531 C 287.261719 254.757812 288.382812 252.363281 289.480469 249.96875 C 289.554688 249.808594 289.625 249.648438 289.699219 249.488281 C 290.8125 247.074219 291.902344 244.648438 292.96875 242.230469 C 292.976562 242.207031 292.984375 242.191406 292.992188 242.167969 C 294.066406 239.738281 295.109375 237.304688 296.144531 234.878906 C 296.214844 234.71875 296.28125 234.558594 296.351562 234.390625 C 297.363281 231.988281 298.359375 229.59375 299.335938 227.207031 C 299.382812 227.101562 299.421875 227 299.464844 226.894531 C 300.441406 224.507812 301.394531 222.128906 302.320312 219.765625 C 302.351562 219.679688 302.390625 219.597656 302.421875 219.507812 C 303.359375 217.125 304.273438 214.753906 305.164062 212.398438 C 305.214844 212.246094 305.277344 212.101562 305.332031 211.949219 C 306.230469 209.570312 307.113281 207.207031 307.972656 204.855469 C 307.972656 204.851562 307.972656 204.851562 307.980469 204.84375 C 308.84375 202.476562 309.6875 200.136719 310.511719 197.804688 C 310.546875 197.6875 310.585938 197.582031 310.632812 197.46875 C 311.445312 195.164062 312.238281 192.886719 313.007812 190.628906 C 313.046875 190.527344 313.078125 190.421875 313.117188 190.324219 C 313.898438 188.035156 314.660156 185.761719 315.402344 183.519531 C 316.640625 179.769531 317.824219 176.09375 318.949219 172.496094 C 319.238281 171.578125 319.519531 170.679688 319.796875 169.78125 C 319.816406 169.695312 319.847656 169.613281 319.871094 169.527344 C 320.121094 168.710938 320.375 167.902344 320.617188 167.09375 C 320.65625 166.964844 320.695312 166.835938 320.738281 166.707031 C 320.976562 165.945312 321.203125 165.179688 321.433594 164.425781 C 321.480469 164.28125 321.515625 164.144531 321.5625 164 C 321.792969 163.246094 322.011719 162.496094 322.234375 161.757812 C 322.269531 161.628906 322.308594 161.5 322.347656 161.367188 C 322.574219 160.589844 322.804688 159.8125 323.03125 159.042969 C 323.054688 158.960938 323.078125 158.875 323.109375 158.800781 C 324.121094 155.34375 325.082031 151.996094 325.980469 148.769531 C 326.019531 148.640625 326.058594 148.511719 326.085938 148.375 C 326.261719 147.734375 326.445312 147.09375 326.621094 146.460938 C 326.679688 146.238281 326.742188 146.027344 326.804688 145.804688 C 326.957031 145.257812 327.101562 144.714844 327.253906 144.171875 C 327.320312 143.929688 327.382812 143.683594 327.449219 143.449219 C 327.585938 142.9375 327.726562 142.425781 327.863281 141.921875 C 327.929688 141.664062 328 141.414062 328.066406 141.160156 C 328.195312 140.6875 328.320312 140.214844 328.449219 139.742188 C 328.515625 139.476562 328.59375 139.203125 328.660156 138.933594 C 328.785156 138.460938 328.90625 137.996094 329.027344 137.53125 C 329.089844 137.289062 329.15625 137.042969 329.21875 136.800781 C 329.347656 136.296875 329.476562 135.800781 329.605469 135.304688 C 329.660156 135.105469 329.710938 134.898438 329.765625 134.703125 C 329.941406 134.015625 330.117188 133.335938 330.292969 132.667969 Z M 77.316406 145.917969 L 35.390625 153.371094 C 35.347656 153.375 35.300781 153.382812 35.253906 153.382812 C 34.890625 153.382812 34.570312 153.125 34.507812 152.75 C 34.433594 152.339844 34.714844 151.941406 35.125 151.867188 L 77.050781 144.417969 C 77.460938 144.339844 77.855469 144.621094 77.933594 145.035156 C 78 145.453125 77.726562 145.851562 77.316406 145.917969 Z M 217.011719 275.460938 L 196.78125 348.429688 C 196.703125 348.714844 196.476562 348.917969 196.1875 348.972656 C 196.140625 348.980469 196.09375 348.988281 196.042969 348.988281 C 195.804688 348.988281 195.578125 348.875 195.433594 348.683594 L 144.359375 280.640625 C 144.109375 280.304688 144.179688 279.824219 144.511719 279.574219 C 144.847656 279.320312 145.328125 279.390625 145.578125 279.726562 L 195.722656 346.523438 L 215.542969 275.050781 C 215.65625 274.644531 216.074219 274.410156 216.480469 274.515625 C 216.882812 274.636719 217.125 275.058594 217.011719 275.460938 Z M 322.660156 153.375 C 322.613281 153.375 322.566406 153.375 322.523438 153.363281 L 280.910156 145.964844 C 280.5 145.886719 280.21875 145.492188 280.292969 145.082031 C 280.371094 144.667969 280.757812 144.386719 281.175781 144.460938 L 322.789062 151.859375 C 323.199219 151.9375 323.480469 152.332031 323.40625 152.742188 C 323.34375 153.117188 323.023438 153.375 322.660156 153.375 Z M 208.359375 221.160156 L 208.289062 220.550781 L 225.671875 218.636719 L 225.863281 220.335938 L 226.335938 224.660156 L 209.027344 226.566406 C 209.121094 224.738281 208.882812 222.90625 208.359375 221.160156 Z M 169.640625 91.3125 C 169.640625 86.15625 173.816406 81.980469 178.964844 81.980469 C 184.113281 81.980469 188.289062 86.15625 188.289062 91.3125 C 188.289062 96.46875 184.113281 100.644531 178.964844 100.644531 C 173.816406 100.644531 169.640625 96.46875 169.640625 91.3125 Z M 18.792969 223.835938 C 18.792969 228.992188 14.621094 233.171875 9.472656 233.171875 C 4.324219 233.171875 0.148438 228.992188 0.148438 223.835938 C 0.148438 218.683594 4.324219 214.503906 9.472656 214.503906 C 14.621094 214.503906 18.792969 218.683594 18.792969 223.835938 Z M 18.792969 223.835938 " fill-opacity="1" fill-rule="nonzero"/><path fill="#fc7f74" d="M 213.484375 172.386719 C 215.121094 174.894531 219.007812 181.917969 212.859375 184.527344 C 205.3125 187.714844 195.167969 171.496094 195.167969 171.496094 C 190.664062 192.382812 167.355469 197.582031 167.320312 197.589844 C 159.816406 193.546875 151.503906 194.152344 147.925781 199.351562 C 143.972656 205.09375 147.285156 214.246094 155.320312 219.789062 C 158.359375 221.886719 161.636719 223.152344 164.75 223.625 L 164.730469 223.828125 C 164.730469 223.828125 163.378906 240.339844 148.742188 243.191406 L 143.894531 192.09375 C 141.726562 168.460938 159.105469 147.535156 182.710938 145.363281 C 205.664062 143.265625 226.0625 159.628906 229.175781 182.222656 C 220.859375 181.25 215.289062 174.773438 213.484375 172.386719 Z M 237.867188 216.585938 L 247.570312 222.960938 L 255.273438 222.113281 L 245.566406 215.738281 Z M 225.597656 217.933594 L 225.671875 218.628906 L 225.863281 220.328125 L 232.40625 224.628906 L 240.105469 223.785156 L 230.402344 217.410156 Z M 253.039062 214.921875 L 262.765625 221.3125 L 270.46875 220.464844 L 260.75 214.078125 Z M 271.398438 212.886719 L 268.234375 213.238281 L 268.207031 213.253906 L 276.742188 218.867188 C 278.296875 218.058594 279.699219 216.972656 280.8125 215.632812 L 274.511719 211.5 C 273.667969 212.253906 272.585938 212.757812 271.398438 212.886719 Z M 346.164062 282.121094 C 342.410156 278.558594 339.683594 274.035156 338.289062 269.050781 C 337.75 267.113281 335.90625 265.839844 333.917969 266.144531 C 331.402344 266.523438 328.882812 266.90625 326.367188 267.289062 C 324.105469 267.628906 322.574219 269.851562 323.140625 272.078125 C 325.28125 280.601562 329.925781 288.296875 336.460938 294.160156 C 338.152344 295.675781 340.8125 295.34375 342.160156 293.511719 C 343.675781 291.460938 345.183594 289.402344 346.699219 287.351562 C 347.894531 285.726562 347.628906 283.5 346.164062 282.121094 Z M 130.382812 106.097656 C 128.128906 104.910156 125.875 103.710938 123.621094 102.523438 C 121.84375 101.585938 119.691406 102.171875 118.539062 103.824219 C 115.578125 108.074219 111.515625 111.4375 106.792969 113.5625 C 104.957031 114.386719 103.976562 116.402344 104.570312 118.320312 C 105.316406 120.753906 106.070312 123.195312 106.816406 125.628906 C 107.496094 127.816406 109.910156 128.996094 112.027344 128.121094 C 120.132812 124.734375 127.046875 119 131.867188 111.65625 C 133.117188 109.742188 132.394531 107.167969 130.382812 106.097656 Z M 130.382812 106.097656 " fill-opacity="1" fill-rule="nonzero"/><path fill="#f4d7d3" d="M 226.335938 224.652344 L 209.027344 226.558594 C 208.976562 227.535156 208.839844 228.503906 208.601562 229.457031 C 208.519531 229.808594 208.207031 230.035156 207.863281 230.035156 C 207.804688 230.035156 207.742188 230.027344 207.679688 230.015625 C 207.269531 229.914062 207.027344 229.503906 207.125 229.089844 C 207.976562 225.628906 207.460938 221.871094 205.707031 218.765625 C 205.503906 218.398438 205.632812 217.933594 205.996094 217.730469 C 206.363281 217.523438 206.828125 217.652344 207.035156 218.019531 C 207.597656 219.011719 208.023438 220.070312 208.359375 221.152344 L 208.289062 220.542969 L 225.671875 218.628906 L 225.597656 217.933594 L 230.402344 217.402344 L 233.84375 217.019531 L 229.417969 184.214844 C 229.34375 183.535156 229.273438 182.863281 229.175781 182.210938 C 220.859375 181.242188 215.289062 174.773438 213.476562 172.386719 C 215.113281 174.894531 219 181.917969 212.851562 184.527344 C 205.304688 187.714844 195.160156 171.496094 195.160156 171.496094 C 190.65625 192.382812 167.347656 197.582031 167.3125 197.589844 C 159.808594 193.546875 151.496094 194.152344 147.917969 199.351562 C 143.964844 205.09375 147.277344 214.246094 155.3125 219.789062 C 158.351562 221.886719 161.628906 223.152344 164.742188 223.625 L 164.722656 223.828125 C 164.722656 223.828125 163.371094 240.339844 148.734375 243.191406 L 151.40625 271.527344 L 189.71875 284.558594 L 206.5 271.527344 L 204.878906 253.652344 C 204.855469 253.652344 204.824219 253.667969 204.800781 253.667969 C 204.792969 253.667969 204.792969 253.667969 204.785156 253.667969 C 192.867188 253.433594 185.285156 246.371094 184.96875 246.074219 C 184.664062 245.785156 184.648438 245.304688 184.9375 244.996094 C 185.226562 244.691406 185.707031 244.679688 186.011719 244.96875 C 186.085938 245.035156 193.503906 251.921875 204.808594 252.144531 C 205.226562 252.152344 205.5625 252.5 205.554688 252.921875 C 205.554688 252.921875 205.554688 252.921875 205.554688 252.929688 C 205.761719 252.929688 205.976562 252.929688 206.179688 252.929688 C 206.347656 252.929688 206.507812 252.929688 206.675781 252.929688 C 206.835938 252.929688 207.003906 252.921875 207.164062 252.921875 C 207.375 252.914062 207.589844 252.90625 207.804688 252.890625 C 207.933594 252.882812 208.054688 252.875 208.183594 252.867188 C 208.527344 252.835938 208.871094 252.804688 209.21875 252.753906 C 209.699219 252.691406 210.171875 252.617188 210.636719 252.523438 C 210.789062 252.492188 210.941406 252.464844 211.09375 252.433594 C 211.40625 252.371094 211.71875 252.304688 212.023438 252.234375 C 212.207031 252.1875 212.378906 252.144531 212.5625 252.097656 C 212.835938 252.027344 213.113281 251.953125 213.386719 251.875 C 213.578125 251.824219 213.757812 251.761719 213.949219 251.707031 C 214.207031 251.632812 214.46875 251.546875 214.726562 251.457031 C 214.917969 251.394531 215.101562 251.328125 215.289062 251.257812 C 215.542969 251.167969 215.792969 251.074219 216.035156 250.976562 C 216.21875 250.898438 216.402344 250.832031 216.585938 250.753906 C 216.828125 250.65625 217.074219 250.550781 217.308594 250.433594 C 217.484375 250.351562 217.667969 250.273438 217.84375 250.191406 C 218.085938 250.078125 218.320312 249.953125 218.558594 249.832031 C 218.726562 249.75 218.894531 249.664062 219.0625 249.574219 C 219.304688 249.445312 219.546875 249.304688 219.792969 249.160156 C 219.945312 249.078125 220.097656 248.992188 220.25 248.902344 C 220.523438 248.734375 220.796875 248.566406 221.0625 248.390625 C 221.171875 248.324219 221.285156 248.253906 221.398438 248.183594 C 221.773438 247.941406 222.136719 247.683594 222.496094 247.421875 C 222.601562 247.339844 222.710938 247.253906 222.824219 247.179688 C 223.074219 246.988281 223.320312 246.804688 223.5625 246.605469 C 223.707031 246.492188 223.84375 246.371094 223.980469 246.257812 C 224.1875 246.089844 224.386719 245.921875 224.582031 245.746094 C 224.726562 245.617188 224.871094 245.476562 225.023438 245.347656 C 225.207031 245.179688 225.390625 245.011719 225.566406 244.835938 C 225.710938 244.691406 225.855469 244.546875 226 244.402344 C 226.167969 244.234375 226.335938 244.058594 226.503906 243.882812 C 226.648438 243.730469 226.785156 243.578125 226.929688 243.425781 C 227.089844 243.25 227.242188 243.078125 227.402344 242.894531 C 227.539062 242.734375 227.675781 242.574219 227.804688 242.414062 C 227.957031 242.230469 228.101562 242.046875 228.246094 241.855469 C 228.375 241.6875 228.503906 241.527344 228.636719 241.351562 C 228.78125 241.164062 228.917969 240.972656 229.054688 240.773438 C 229.175781 240.605469 229.296875 240.4375 229.417969 240.261719 C 229.558594 240.0625 229.6875 239.859375 229.824219 239.652344 C 229.929688 239.484375 230.042969 239.316406 230.152344 239.140625 C 230.296875 238.90625 230.441406 238.652344 230.578125 238.410156 C 230.738281 238.136719 230.882812 237.867188 231.035156 237.585938 C 231.164062 237.34375 231.300781 237.089844 231.421875 236.839844 C 231.515625 236.648438 231.605469 236.449219 231.695312 236.257812 C 231.796875 236.046875 231.894531 235.839844 231.996094 235.625 C 232.085938 235.421875 232.167969 235.214844 232.253906 235.007812 C 232.335938 234.800781 232.429688 234.597656 232.503906 234.382812 C 232.589844 234.167969 232.664062 233.957031 232.742188 233.742188 C 232.816406 233.535156 232.894531 233.332031 232.960938 233.117188 C 233.039062 232.894531 233.105469 232.683594 233.175781 232.460938 C 233.242188 232.253906 233.304688 232.042969 233.367188 231.828125 C 233.425781 231.609375 233.488281 231.378906 233.546875 231.15625 C 233.601562 230.945312 233.65625 230.730469 233.707031 230.515625 C 233.761719 230.289062 233.816406 230.058594 233.859375 229.832031 C 233.90625 229.617188 233.945312 229.402344 233.988281 229.183594 C 234.035156 228.953125 234.074219 228.71875 234.113281 228.488281 C 234.148438 228.265625 234.171875 228.054688 234.203125 227.832031 C 234.234375 227.597656 234.273438 227.367188 234.292969 227.132812 C 234.316406 226.910156 234.339844 226.679688 234.355469 226.453125 C 234.378906 226.222656 234.402344 225.988281 234.417969 225.757812 C 234.445312 225.316406 234.460938 224.875 234.46875 224.433594 L 226.378906 225.324219 Z M 215.875 197.40625 L 221.574219 192.871094 C 221.902344 192.601562 222.382812 192.664062 222.640625 192.992188 C 222.898438 193.320312 222.847656 193.800781 222.519531 194.058594 L 217.691406 197.910156 L 223.007812 201.050781 C 223.371094 201.265625 223.484375 201.730469 223.273438 202.097656 C 223.128906 202.339844 222.875 202.46875 222.617188 202.46875 C 222.488281 202.46875 222.351562 202.441406 222.230469 202.363281 L 215.953125 198.664062 C 215.738281 198.535156 215.59375 198.3125 215.578125 198.0625 C 215.570312 197.804688 215.679688 197.566406 215.875 197.40625 Z M 208.960938 213.605469 C 209.996094 213.503906 210.925781 212.957031 211.503906 212.085938 C 212.082031 211.21875 212.234375 210.148438 211.921875 209.148438 L 210.667969 205.109375 C 210.542969 204.703125 210.765625 204.277344 211.167969 204.15625 C 211.574219 204.035156 212 204.253906 212.121094 204.660156 L 213.378906 208.699219 C 213.828125 210.140625 213.605469 211.683594 212.769531 212.941406 C 211.929688 214.191406 210.597656 214.992188 209.097656 215.128906 C 209.074219 215.128906 209.050781 215.128906 209.027344 215.128906 C 208.640625 215.128906 208.304688 214.832031 208.265625 214.433594 C 208.230469 214.015625 208.542969 213.640625 208.960938 213.605469 Z M 155.558594 205.421875 C 155.175781 205.246094 155.007812 204.789062 155.191406 204.40625 C 155.367188 204.027344 155.824219 203.859375 156.207031 204.042969 L 165.621094 208.441406 C 166 208.617188 166.167969 209.074219 165.984375 209.457031 C 165.855469 209.730469 165.582031 209.898438 165.292969 209.898438 C 165.1875 209.898438 165.070312 209.875 164.972656 209.828125 Z M 200.703125 200.136719 L 194.703125 204.269531 C 194.570312 204.363281 194.417969 204.40625 194.265625 204.40625 C 194.023438 204.40625 193.789062 204.292969 193.636719 204.078125 C 193.398438 203.730469 193.484375 203.253906 193.832031 203.019531 L 198.921875 199.519531 L 193.832031 196.019531 C 193.484375 195.78125 193.398438 195.300781 193.636719 194.960938 C 193.871094 194.609375 194.351562 194.523438 194.695312 194.761719 L 200.695312 198.894531 C 200.902344 199.039062 201.023438 199.273438 201.023438 199.519531 C 201.023438 199.761719 200.910156 200 200.703125 200.136719 Z M 63.246094 94.46875 C 63.246094 94.46875 67.636719 108.761719 72.890625 125.636719 L 27.683594 132.679688 C 27.523438 132.0625 27.371094 131.460938 27.21875 130.859375 C 27.21875 130.84375 27.210938 130.835938 27.210938 130.820312 C 27.007812 130.003906 26.808594 129.210938 26.609375 128.425781 C 26.433594 127.730469 26.265625 127.046875 26.097656 126.375 C 26.039062 126.136719 25.984375 125.902344 25.925781 125.664062 C 25.878906 125.492188 25.839844 125.332031 25.800781 125.15625 C 25.710938 124.773438 25.613281 124.390625 25.519531 124.019531 C 25.496094 123.917969 25.476562 123.820312 25.445312 123.714844 C 25.335938 123.277344 25.230469 122.84375 25.132812 122.417969 C 25.125 122.371094 25.109375 122.324219 25.101562 122.289062 C 24.988281 121.808594 24.875 121.335938 24.757812 120.871094 C 24.75 120.839844 24.742188 120.816406 24.734375 120.785156 C 24.621094 120.3125 24.515625 119.847656 24.410156 119.390625 C 24.386719 119.277344 24.355469 119.167969 24.332031 119.054688 C 24.242188 118.671875 24.15625 118.300781 24.066406 117.933594 C 24.050781 117.855469 24.035156 117.789062 24.011719 117.710938 C 23.921875 117.324219 23.828125 116.933594 23.746094 116.554688 C 23.707031 116.402344 23.675781 116.25 23.640625 116.101562 C 23.570312 115.796875 23.503906 115.5 23.433594 115.203125 C 23.410156 115.105469 23.386719 115.019531 23.371094 114.921875 C 23.296875 114.570312 23.210938 114.226562 23.136719 113.890625 C 23.136719 113.882812 23.128906 113.867188 23.128906 113.859375 C 23.039062 113.457031 22.945312 113.054688 22.863281 112.664062 C 22.855469 112.617188 22.847656 112.582031 22.832031 112.542969 C 22.664062 111.78125 22.496094 111.054688 22.34375 110.359375 C 22.328125 110.308594 22.320312 110.253906 22.304688 110.195312 C 22.238281 109.886719 22.175781 109.582031 22.109375 109.292969 C 22.09375 109.234375 22.085938 109.171875 22.070312 109.109375 C 22.007812 108.820312 21.949219 108.539062 21.886719 108.265625 C 21.878906 108.242188 21.878906 108.226562 21.871094 108.203125 C 21.734375 107.570312 21.605469 106.96875 21.492188 106.410156 C 21.492188 106.394531 21.484375 106.378906 21.484375 106.367188 C 21.421875 106.089844 21.371094 105.824219 21.316406 105.574219 C 21.316406 105.566406 21.316406 105.558594 21.308594 105.550781 C 21.140625 104.757812 20.996094 104.054688 20.875 103.445312 C 20.867188 103.421875 20.867188 103.40625 20.859375 103.382812 C 20.820312 103.199219 20.78125 103.019531 20.753906 102.851562 C 20.683594 102.492188 20.617188 102.179688 20.5625 101.90625 C 20.554688 101.859375 20.546875 101.820312 20.539062 101.78125 C 20.523438 101.691406 20.5 101.589844 20.484375 101.507812 C 20.476562 101.476562 20.46875 101.445312 20.46875 101.417969 C 20.457031 101.339844 20.441406 101.265625 20.433594 101.203125 C 20.425781 101.15625 20.417969 101.117188 20.410156 101.082031 C 20.402344 101.035156 20.394531 100.988281 20.386719 100.957031 C 20.378906 100.9375 20.378906 100.914062 20.371094 100.890625 C 20.363281 100.835938 20.347656 100.785156 20.339844 100.746094 C 20.324219 100.675781 20.316406 100.632812 20.316406 100.625 L 20.304688 100.625 C 20.164062 99.96875 20.027344 99.304688 19.890625 98.640625 C 19.847656 98.417969 19.800781 98.191406 19.761719 97.960938 C 19.671875 97.519531 19.585938 97.078125 19.503906 96.628906 C 19.449219 96.359375 19.402344 96.085938 19.351562 95.820312 C 19.273438 95.414062 19.199219 95.003906 19.121094 94.597656 C 19.070312 94.308594 19.015625 94.011719 18.96875 93.722656 C 18.902344 93.332031 18.832031 92.945312 18.765625 92.546875 C 18.710938 92.25 18.664062 91.945312 18.613281 91.640625 C 18.542969 91.25 18.484375 90.863281 18.421875 90.472656 C 18.375 90.175781 18.324219 89.871094 18.277344 89.566406 C 18.214844 89.175781 18.15625 88.789062 18.09375 88.390625 C 18.046875 88.085938 18.003906 87.78125 17.957031 87.484375 C 17.894531 87.09375 17.84375 86.714844 17.78125 86.324219 C 17.734375 86.019531 17.691406 85.707031 17.644531 85.402344 C 17.589844 85.019531 17.53125 84.632812 17.476562 84.25 C 17.429688 83.953125 17.394531 83.648438 17.347656 83.351562 C 17.292969 82.960938 17.242188 82.574219 17.1875 82.183594 C 17.148438 81.886719 17.113281 81.597656 17.066406 81.300781 C 17.011719 80.910156 16.960938 80.515625 16.914062 80.125 C 16.875 79.84375 16.835938 79.554688 16.808594 79.273438 C 16.753906 78.875 16.707031 78.480469 16.65625 78.082031 C 16.625 77.808594 16.585938 77.539062 16.554688 77.265625 C 16.503906 76.847656 16.457031 76.433594 16.402344 76.023438 C 16.371094 75.785156 16.34375 75.542969 16.320312 75.300781 C 16.265625 74.847656 16.210938 74.40625 16.167969 73.964844 C 16.144531 73.765625 16.121094 73.558594 16.097656 73.363281 C 16.039062 72.828125 15.984375 72.292969 15.921875 71.777344 C 15.914062 71.675781 15.902344 71.570312 15.894531 71.472656 C 15.824219 70.835938 15.753906 70.210938 15.695312 69.59375 C 15.6875 69.550781 15.6875 69.496094 15.679688 69.449219 C 15.617188 68.894531 15.566406 68.34375 15.511719 67.804688 C 15.496094 67.636719 15.480469 67.476562 15.464844 67.316406 C 15.429688 66.894531 15.382812 66.476562 15.34375 66.0625 C 15.328125 65.875 15.304688 65.683594 15.292969 65.492188 C 15.253906 65.125 15.222656 64.761719 15.191406 64.402344 C 15.167969 64.195312 15.152344 63.996094 15.140625 63.792969 C 15.109375 63.464844 15.078125 63.128906 15.046875 62.808594 C 15.03125 62.59375 15.007812 62.390625 14.992188 62.183594 C 14.972656 61.886719 14.941406 61.589844 14.917969 61.289062 C 14.902344 61.085938 14.878906 60.878906 14.863281 60.671875 C 14.839844 60.398438 14.820312 60.125 14.796875 59.855469 C 14.78125 59.660156 14.765625 59.460938 14.75 59.261719 C 14.726562 58.996094 14.703125 58.734375 14.6875 58.484375 C 14.675781 58.308594 14.660156 58.125 14.652344 57.957031 C 14.628906 57.707031 14.613281 57.46875 14.597656 57.234375 C 14.582031 57.066406 14.574219 56.898438 14.558594 56.738281 C 14.542969 56.515625 14.53125 56.296875 14.515625 56.089844 C 14.5 55.929688 14.492188 55.777344 14.484375 55.625 C 14.46875 55.410156 14.453125 55.207031 14.4375 55 C 14.429688 54.878906 14.421875 54.753906 14.414062 54.640625 C 14.398438 54.441406 14.382812 54.253906 14.378906 54.070312 C 14.371094 53.953125 14.363281 53.832031 14.355469 53.726562 C 14.347656 53.566406 14.332031 53.421875 14.324219 53.269531 C 14.316406 53.160156 14.308594 53.054688 14.300781 52.957031 C 14.292969 52.820312 14.285156 52.703125 14.277344 52.582031 C 14.269531 52.492188 14.261719 52.382812 14.261719 52.300781 C 14.238281 51.925781 14.226562 51.636719 14.210938 51.429688 C 14.171875 51.1875 14.148438 50.941406 14.140625 50.699219 C 14.140625 50.691406 14.140625 50.691406 14.140625 50.683594 C 14.117188 49.953125 14.21875 49.21875 14.4375 48.511719 C 14.445312 48.488281 14.453125 48.464844 14.460938 48.433594 C 14.523438 48.242188 14.597656 48.050781 14.683594 47.863281 C 14.703125 47.800781 14.734375 47.746094 14.765625 47.6875 C 14.839844 47.535156 14.917969 47.382812 15 47.238281 C 15.039062 47.167969 15.078125 47.105469 15.117188 47.039062 C 15.207031 46.894531 15.304688 46.757812 15.40625 46.617188 C 15.449219 46.558594 15.488281 46.503906 15.535156 46.445312 C 15.6875 46.253906 15.847656 46.070312 16.023438 45.894531 C 16.21875 45.695312 16.425781 45.519531 16.648438 45.359375 C 16.707031 45.316406 16.769531 45.277344 16.820312 45.230469 C 16.996094 45.101562 17.179688 44.988281 17.371094 44.878906 C 17.417969 44.859375 17.460938 44.828125 17.507812 44.796875 C 17.742188 44.667969 17.980469 44.558594 18.230469 44.460938 C 18.269531 44.445312 18.316406 44.429688 18.351562 44.421875 C 18.566406 44.347656 18.789062 44.277344 19.007812 44.226562 C 19.0625 44.210938 19.105469 44.203125 19.160156 44.1875 C 19.6875 44.070312 20.226562 44.019531 20.769531 44.042969 C 20.796875 44.042969 20.828125 44.042969 20.867188 44.050781 C 21.132812 44.066406 21.390625 44.085938 21.660156 44.132812 C 21.667969 44.132812 21.667969 44.132812 21.675781 44.132812 C 21.957031 44.1875 22.238281 44.253906 22.511719 44.339844 C 22.277344 44.636719 22.285156 45.0625 22.558594 45.339844 L 30.722656 53.574219 C 30.5625 53.734375 30.472656 53.949219 30.496094 54.191406 C 30.683594 55.921875 30.089844 57.609375 28.855469 58.835938 C 27.789062 59.894531 26.375 60.476562 24.875 60.476562 C 24.867188 60.476562 24.859375 60.476562 24.851562 60.476562 C 23.34375 60.46875 21.925781 59.871094 20.859375 58.804688 L 19.351562 57.28125 C 19.054688 56.980469 18.574219 56.980469 18.277344 57.273438 C 17.980469 57.570312 17.980469 58.050781 18.277344 58.347656 L 19.785156 59.871094 C 21.132812 61.238281 22.9375 61.984375 24.851562 61.992188 C 24.859375 61.992188 24.867188 61.992188 24.878906 61.992188 C 26.785156 61.992188 28.582031 61.253906 29.9375 59.910156 C 30.097656 59.75 30.242188 59.582031 30.378906 59.414062 C 31.332031 60.480469 39.15625 69.632812 39.550781 81.757812 C 39.566406 82.167969 39.902344 82.496094 40.3125 82.496094 C 40.320312 82.496094 40.328125 82.496094 40.335938 82.496094 C 40.753906 82.480469 41.082031 82.132812 41.074219 81.710938 C 40.617188 68.3125 31.75 58.699219 31.378906 58.292969 C 31.332031 58.242188 31.273438 58.210938 31.210938 58.179688 C 31.734375 57.1875 32.019531 56.082031 32.035156 54.945312 L 32.40625 55.320312 C 33.753906 56.683594 35.558594 57.433594 37.472656 57.441406 C 37.480469 57.441406 37.488281 57.441406 37.503906 57.441406 C 39.40625 57.441406 41.203125 56.699219 42.558594 55.359375 C 43.921875 54.007812 44.667969 52.199219 44.675781 50.285156 C 44.675781 49.484375 44.546875 48.714844 44.304688 47.976562 C 43.960938 46.9375 43.382812 45.992188 42.597656 45.191406 L 31.835938 34.34375 C 31.15625 33.65625 30.363281 33.128906 29.488281 32.761719 C 29.457031 32.753906 29.4375 32.753906 29.40625 32.75 C 28.847656 31.824219 28.535156 30.796875 28.484375 29.757812 C 28.484375 29.734375 28.484375 29.714844 28.484375 29.691406 C 28.46875 29.355469 28.476562 29.019531 28.515625 28.683594 C 28.515625 28.675781 28.515625 28.660156 28.523438 28.652344 C 28.558594 28.324219 28.628906 27.996094 28.71875 27.667969 C 28.726562 27.65625 28.726562 27.640625 28.726562 27.625 C 28.820312 27.320312 28.933594 27.015625 29.070312 26.722656 C 29.09375 26.679688 29.117188 26.625 29.140625 26.578125 C 29.277344 26.296875 29.4375 26.023438 29.617188 25.761719 C 29.648438 25.71875 29.679688 25.679688 29.71875 25.632812 C 29.914062 25.367188 30.128906 25.101562 30.371094 24.855469 C 30.578125 24.648438 30.808594 24.46875 31.035156 24.292969 C 31.097656 24.246094 31.148438 24.207031 31.210938 24.160156 C 31.4375 24 31.667969 23.847656 31.910156 23.726562 C 31.917969 23.726562 31.917969 23.71875 31.925781 23.71875 C 32.179688 23.589844 32.4375 23.484375 32.695312 23.382812 C 32.757812 23.359375 32.816406 23.339844 32.878906 23.324219 C 33.136719 23.238281 33.402344 23.164062 33.671875 23.109375 C 33.671875 23.109375 33.679688 23.109375 33.679688 23.109375 C 33.953125 23.054688 34.234375 23.027344 34.507812 23.011719 C 34.5625 23.011719 34.621094 23.003906 34.675781 23.003906 C 35.230469 22.988281 35.796875 23.035156 36.34375 23.164062 C 36.398438 23.171875 36.445312 23.1875 36.488281 23.199219 C 36.761719 23.269531 37.03125 23.351562 37.289062 23.460938 C 37.273438 23.667969 37.34375 23.878906 37.503906 24.039062 L 49.074219 35.683594 C 49.226562 35.835938 49.414062 35.90625 49.613281 35.90625 C 49.804688 35.90625 50 35.828125 50.144531 35.683594 L 52.882812 38.445312 C 55.378906 40.960938 55.363281 45.023438 52.851562 47.527344 C 51.226562 49.136719 48.972656 49.691406 46.902344 49.21875 C 49.703125 57.84375 52.5 66.46875 55.304688 75.101562 C 56.566406 78.996094 60.574219 81.222656 64.503906 80.371094 C 64.503906 80.371094 64.503906 80.378906 64.503906 80.378906 C 64.132812 85.121094 63.789062 88.980469 63.558594 91.449219 C 63.558594 91.464844 63.558594 91.472656 63.558594 91.488281 C 63.507812 92.023438 63.46875 92.496094 63.421875 92.898438 C 63.421875 92.898438 63.421875 92.90625 63.421875 92.90625 C 63.347656 93.675781 63.300781 94.171875 63.277344 94.371094 C 63.253906 94.429688 63.246094 94.46875 63.246094 94.46875 Z M 300.136719 34.320312 C 297.621094 31.816406 297.605469 27.753906 300.105469 25.238281 L 304.445312 20.859375 L 312.535156 12.699219 C 315.035156 10.183594 319.09375 10.167969 321.609375 12.671875 C 324.121094 15.171875 324.136719 19.234375 321.640625 21.753906 L 320.441406 22.957031 C 320.144531 22.660156 319.664062 22.660156 319.367188 22.957031 L 307.796875 34.601562 C 307.570312 34.828125 307.523438 35.164062 307.644531 35.449219 C 305.230469 36.722656 302.167969 36.347656 300.136719 34.320312 Z M 329.453125 33.222656 C 329.703125 33.152344 329.964844 33.097656 330.222656 33.0625 C 330.253906 33.054688 330.285156 33.054688 330.3125 33.046875 C 330.839844 32.96875 331.375 32.960938 331.898438 33.023438 C 331.929688 33.023438 331.960938 33.03125 331.988281 33.039062 C 332.210938 33.070312 332.441406 33.105469 332.660156 33.160156 C 332.714844 33.175781 332.765625 33.183594 332.820312 33.199219 C 333.0625 33.257812 333.300781 33.335938 333.535156 33.425781 C 333.542969 33.425781 333.550781 33.433594 333.558594 33.433594 C 333.796875 33.527344 334.03125 33.640625 334.261719 33.769531 C 334.320312 33.800781 334.375 33.839844 334.425781 33.871094 C 334.59375 33.96875 334.761719 34.074219 334.929688 34.195312 C 334.992188 34.242188 335.050781 34.28125 335.113281 34.328125 C 335.320312 34.488281 335.523438 34.664062 335.714844 34.84375 C 338.226562 37.347656 338.242188 41.410156 335.746094 43.925781 L 335.386719 44.285156 C 335.089844 43.988281 334.609375 43.988281 334.3125 44.292969 L 324.449219 54.246094 C 323.382812 55.320312 321.964844 55.914062 320.457031 55.914062 C 320.449219 55.914062 320.441406 55.914062 320.433594 55.914062 C 318.933594 55.914062 317.519531 55.335938 316.453125 54.273438 C 315.378906 53.207031 314.785156 51.789062 314.785156 50.28125 C 314.777344 48.769531 315.363281 47.34375 316.421875 46.269531 L 327.175781 35.417969 C 327.710938 34.875 328.332031 34.457031 329.027344 34.175781 C 329.402344 34.007812 329.574219 33.59375 329.453125 33.222656 Z M 343.804688 50.691406 C 343.804688 50.691406 343.804688 50.699219 343.804688 50.699219 C 343.796875 50.941406 343.773438 51.1875 343.734375 51.429688 C 343.71875 51.699219 343.691406 52.132812 343.660156 52.679688 C 343.652344 52.765625 343.652344 52.839844 343.644531 52.933594 C 343.636719 53.054688 343.628906 53.191406 343.621094 53.320312 C 343.613281 53.445312 343.605469 53.566406 343.597656 53.703125 C 343.589844 53.824219 343.582031 53.960938 343.574219 54.085938 C 343.558594 54.261719 343.554688 54.425781 343.539062 54.617188 C 343.53125 54.746094 343.523438 54.878906 343.507812 55.015625 C 343.492188 55.207031 343.476562 55.402344 343.460938 55.609375 C 343.453125 55.769531 343.4375 55.929688 343.421875 56.097656 C 343.40625 56.304688 343.394531 56.507812 343.378906 56.730469 C 343.363281 56.898438 343.355469 57.074219 343.339844 57.242188 C 343.324219 57.46875 343.300781 57.707031 343.285156 57.949219 C 343.269531 58.125 343.253906 58.308594 343.242188 58.492188 C 343.21875 58.742188 343.203125 58.996094 343.179688 59.261719 C 343.164062 59.460938 343.148438 59.660156 343.132812 59.863281 C 343.109375 60.132812 343.089844 60.40625 343.066406 60.6875 C 343.050781 60.886719 343.035156 61.078125 343.011719 61.28125 C 342.988281 61.589844 342.957031 61.902344 342.929688 62.214844 C 342.914062 62.410156 342.890625 62.609375 342.875 62.808594 C 342.84375 63.136719 342.8125 63.464844 342.785156 63.800781 C 342.769531 64.003906 342.746094 64.203125 342.730469 64.410156 C 342.699219 64.769531 342.660156 65.132812 342.632812 65.5 C 342.617188 65.691406 342.59375 65.882812 342.578125 66.078125 C 342.539062 66.484375 342.5 66.902344 342.457031 67.324219 C 342.441406 67.492188 342.425781 67.652344 342.410156 67.816406 C 342.355469 68.351562 342.304688 68.902344 342.242188 69.449219 C 342.234375 69.503906 342.234375 69.558594 342.226562 69.609375 C 342.167969 70.226562 342.097656 70.851562 342.03125 71.484375 C 342.023438 71.578125 342.007812 71.675781 342 71.777344 C 341.9375 72.308594 341.882812 72.84375 341.824219 73.386719 C 341.800781 73.582031 341.777344 73.78125 341.753906 73.980469 C 341.703125 74.421875 341.65625 74.871094 341.601562 75.320312 C 341.574219 75.550781 341.550781 75.785156 341.519531 76.023438 C 341.464844 76.441406 341.421875 76.871094 341.367188 77.296875 C 341.335938 77.554688 341.304688 77.808594 341.269531 78.066406 C 341.214844 78.472656 341.167969 78.882812 341.117188 79.292969 C 341.078125 79.570312 341.046875 79.851562 341.007812 80.132812 C 340.957031 80.523438 340.910156 80.917969 340.855469 81.316406 C 340.816406 81.613281 340.78125 81.902344 340.734375 82.199219 C 340.679688 82.589844 340.628906 82.976562 340.574219 83.367188 C 340.535156 83.664062 340.492188 83.960938 340.453125 84.257812 C 340.398438 84.648438 340.339844 85.042969 340.285156 85.433594 C 340.238281 85.730469 340.203125 86.027344 340.15625 86.332031 C 340.09375 86.730469 340.042969 87.117188 339.980469 87.515625 C 339.933594 87.8125 339.890625 88.109375 339.84375 88.40625 C 339.78125 88.804688 339.722656 89.199219 339.652344 89.597656 C 339.605469 89.894531 339.5625 90.191406 339.507812 90.488281 C 339.445312 90.886719 339.378906 91.273438 339.308594 91.671875 C 339.257812 91.96875 339.210938 92.265625 339.15625 92.5625 C 339.089844 92.960938 339.019531 93.355469 338.953125 93.753906 C 338.898438 94.042969 338.851562 94.332031 338.800781 94.621094 C 338.722656 95.035156 338.648438 95.445312 338.570312 95.855469 C 338.527344 96.125 338.472656 96.390625 338.425781 96.652344 C 338.34375 97.101562 338.25 97.550781 338.167969 97.992188 C 338.121094 98.214844 338.082031 98.441406 338.039062 98.664062 C 337.902344 99.328125 337.769531 99.992188 337.625 100.644531 L 337.613281 100.644531 L 337.617188 100.652344 C 337.617188 100.652344 335.304688 113.039062 330.269531 132.734375 L 285.0625 125.6875 C 290.316406 108.8125 294.703125 94.523438 294.703125 94.523438 L 294.734375 94.515625 L 294.699219 94.507812 C 294.699219 94.507812 294.691406 94.46875 294.691406 94.402344 C 294.691406 94.394531 294.691406 94.394531 294.691406 94.386719 C 294.683594 94.332031 294.675781 94.257812 294.667969 94.171875 C 294.660156 94.125 294.660156 94.074219 294.652344 94.011719 C 294.644531 93.972656 294.644531 93.929688 294.636719 93.890625 C 294.613281 93.660156 294.582031 93.378906 294.550781 93.035156 C 294.550781 92.996094 294.546875 92.960938 294.546875 92.921875 C 294.507812 92.554688 294.46875 92.136719 294.421875 91.65625 C 294.414062 91.59375 294.40625 91.535156 294.40625 91.472656 C 294.363281 90.96875 294.308594 90.414062 294.253906 89.800781 C 294.246094 89.757812 294.246094 89.710938 294.242188 89.664062 C 294.210938 89.351562 294.179688 89.03125 294.15625 88.6875 C 294.15625 88.675781 294.15625 88.652344 294.148438 88.628906 C 294.117188 88.308594 294.089844 87.980469 294.066406 87.636719 C 294.058594 87.574219 294.058594 87.515625 294.050781 87.445312 C 294.019531 87.082031 293.980469 86.699219 293.949219 86.300781 C 293.949219 86.289062 293.949219 86.273438 293.941406 86.257812 C 293.914062 85.882812 293.875 85.496094 293.84375 85.089844 C 293.835938 85.019531 293.835938 84.953125 293.828125 84.890625 C 293.789062 84.472656 293.761719 84.039062 293.722656 83.59375 C 293.722656 83.585938 293.722656 83.582031 293.722656 83.574219 C 293.683594 83.152344 293.652344 82.71875 293.617188 82.277344 C 293.609375 82.191406 293.601562 82.109375 293.59375 82.023438 C 293.554688 81.558594 293.515625 81.09375 293.480469 80.613281 C 293.480469 80.605469 293.480469 80.605469 293.480469 80.597656 C 296.976562 80.78125 300.289062 78.640625 301.414062 75.160156 C 304.195312 66.582031 306.984375 58.011719 309.765625 49.433594 C 308.089844 49.464844 306.398438 48.851562 305.117188 47.574219 C 302.605469 45.070312 302.589844 41.007812 305.085938 38.492188 L 307.820312 35.730469 C 307.972656 35.875 308.164062 35.949219 308.355469 35.949219 C 308.550781 35.949219 308.742188 35.875 308.894531 35.730469 L 320.464844 24.085938 C 320.625 23.925781 320.695312 23.710938 320.679688 23.507812 C 320.9375 23.398438 321.210938 23.316406 321.488281 23.246094 C 321.53125 23.230469 321.585938 23.222656 321.632812 23.207031 C 322.179688 23.078125 322.734375 23.035156 323.300781 23.046875 C 323.351562 23.046875 323.414062 23.054688 323.464844 23.054688 C 323.75 23.070312 324.023438 23.101562 324.296875 23.15625 C 324.296875 23.15625 324.296875 23.15625 324.304688 23.15625 C 324.570312 23.207031 324.835938 23.285156 325.097656 23.367188 C 325.15625 23.390625 325.21875 23.40625 325.28125 23.429688 C 325.539062 23.519531 325.796875 23.636719 326.050781 23.765625 C 326.054688 23.765625 326.054688 23.773438 326.0625 23.773438 C 326.308594 23.902344 326.535156 24.046875 326.765625 24.207031 C 326.824219 24.246094 326.878906 24.292969 326.941406 24.335938 C 327.167969 24.511719 327.390625 24.695312 327.601562 24.902344 C 327.847656 25.144531 328.058594 25.40625 328.257812 25.679688 C 328.289062 25.726562 328.328125 25.761719 328.355469 25.808594 C 328.539062 26.066406 328.699219 26.34375 328.835938 26.625 C 328.859375 26.671875 328.882812 26.722656 328.90625 26.769531 C 329.042969 27.066406 329.15625 27.363281 329.25 27.667969 C 329.253906 27.683594 329.253906 27.699219 329.253906 27.714844 C 329.347656 28.035156 329.40625 28.363281 329.453125 28.699219 C 329.453125 28.707031 329.453125 28.722656 329.460938 28.730469 C 329.5 29.066406 329.507812 29.402344 329.492188 29.734375 C 329.492188 29.757812 329.492188 29.78125 329.492188 29.804688 C 329.4375 30.847656 329.125 31.878906 328.570312 32.792969 C 328.539062 32.800781 328.515625 32.800781 328.488281 32.808594 C 327.601562 33.175781 326.8125 33.710938 326.140625 34.386719 L 315.339844 45.183594 C 314.546875 45.980469 313.976562 46.933594 313.632812 47.96875 C 313.390625 48.699219 313.253906 49.480469 313.261719 50.28125 C 313.269531 52.199219 314.023438 54 315.386719 55.351562 C 316.742188 56.691406 318.53125 57.433594 320.441406 57.433594 C 320.449219 57.433594 320.457031 57.433594 320.472656 57.433594 C 322.394531 57.425781 324.191406 56.667969 325.539062 55.3125 L 325.910156 54.9375 C 325.925781 56.074219 326.214844 57.179688 326.734375 58.171875 C 326.671875 58.210938 326.621094 58.242188 326.566406 58.285156 C 326.1875 58.691406 317.328125 68.296875 316.886719 81.726562 C 316.871094 82.148438 317.199219 82.496094 317.625 82.511719 C 317.632812 82.511719 317.640625 82.511719 317.648438 82.511719 C 318.058594 82.511719 318.394531 82.183594 318.410156 81.773438 C 318.804688 69.65625 326.636719 60.496094 327.578125 59.429688 C 327.726562 59.597656 327.871094 59.765625 328.023438 59.925781 C 329.378906 61.269531 331.167969 62.007812 333.078125 62.007812 C 333.085938 62.007812 333.09375 62.007812 333.109375 62.007812 C 335.03125 62 336.828125 61.246094 338.175781 59.886719 L 339.691406 58.363281 C 339.988281 58.066406 339.988281 57.585938 339.691406 57.289062 C 339.394531 56.988281 338.914062 56.988281 338.617188 57.292969 L 337.101562 58.820312 C 336.035156 59.894531 334.617188 60.488281 333.109375 60.488281 C 333.101562 60.488281 333.09375 60.488281 333.085938 60.488281 C 331.585938 60.488281 330.167969 59.910156 329.101562 58.851562 C 327.871094 57.628906 327.273438 55.9375 327.464844 54.207031 C 327.488281 53.96875 327.398438 53.75 327.238281 53.589844 L 335.402344 45.351562 C 335.675781 45.078125 335.683594 44.652344 335.449219 44.355469 C 335.722656 44.261719 336.003906 44.195312 336.285156 44.148438 C 336.292969 44.148438 336.292969 44.148438 336.300781 44.148438 C 336.558594 44.101562 336.828125 44.070312 337.09375 44.066406 C 337.125 44.066406 337.15625 44.066406 337.183594 44.058594 C 337.726562 44.035156 338.257812 44.085938 338.792969 44.203125 C 338.84375 44.210938 338.890625 44.226562 338.945312 44.238281 C 339.164062 44.292969 339.386719 44.363281 339.605469 44.4375 C 339.644531 44.453125 339.691406 44.460938 339.730469 44.476562 C 339.972656 44.566406 340.214844 44.683594 340.453125 44.8125 C 340.5 44.835938 340.542969 44.863281 340.589844 44.894531 C 340.78125 45.003906 340.964844 45.117188 341.136719 45.246094 C 341.199219 45.292969 341.261719 45.332031 341.3125 45.375 C 341.527344 45.542969 341.738281 45.71875 341.9375 45.910156 C 342.113281 46.085938 342.273438 46.269531 342.425781 46.457031 C 342.472656 46.511719 342.507812 46.574219 342.554688 46.632812 C 342.652344 46.773438 342.753906 46.910156 342.84375 47.054688 C 342.882812 47.113281 342.921875 47.183594 342.957031 47.253906 C 343.042969 47.398438 343.125 47.550781 343.195312 47.703125 C 343.226562 47.761719 343.25 47.816406 343.277344 47.878906 C 343.363281 48.066406 343.429688 48.25 343.5 48.449219 C 343.507812 48.472656 343.515625 48.496094 343.523438 48.527344 C 343.726562 49.21875 343.828125 49.960938 343.804688 50.691406 Z M 36.296875 21.761719 C 33.800781 19.242188 33.816406 15.179688 36.328125 12.675781 C 38.84375 10.175781 42.902344 10.191406 45.402344 12.707031 L 53.199219 20.578125 L 57.832031 25.253906 C 60.332031 27.769531 60.316406 31.832031 57.800781 34.335938 C 55.761719 36.363281 52.707031 36.738281 50.292969 35.457031 C 50.414062 35.171875 50.367188 34.835938 50.140625 34.609375 L 38.570312 22.964844 C 38.273438 22.667969 37.792969 22.667969 37.496094 22.964844 Z M 22.183594 43.925781 C 19.6875 41.410156 19.703125 37.347656 22.214844 34.84375 C 22.40625 34.65625 22.609375 34.488281 22.816406 34.328125 C 22.878906 34.28125 22.9375 34.234375 23 34.195312 C 23.160156 34.082031 23.328125 33.96875 23.503906 33.871094 C 23.554688 33.839844 23.617188 33.800781 23.667969 33.769531 C 23.898438 33.648438 24.132812 33.535156 24.371094 33.433594 C 24.378906 33.433594 24.386719 33.425781 24.386719 33.425781 C 24.621094 33.335938 24.859375 33.257812 25.101562 33.199219 C 25.15625 33.183594 25.207031 33.175781 25.261719 33.160156 C 25.484375 33.105469 25.703125 33.070312 25.933594 33.039062 C 25.960938 33.039062 25.992188 33.03125 26.023438 33.023438 C 26.550781 32.960938 27.082031 32.96875 27.617188 33.046875 C 27.644531 33.054688 27.675781 33.054688 27.707031 33.0625 C 27.964844 33.097656 28.226562 33.152344 28.476562 33.222656 C 28.347656 33.59375 28.53125 34.015625 28.902344 34.167969 C 29.597656 34.457031 30.21875 34.875 30.753906 35.410156 L 41.507812 46.269531 C 43.703125 48.480469 43.695312 52.070312 41.476562 54.273438 C 40.410156 55.335938 38.996094 55.914062 37.496094 55.914062 C 37.488281 55.914062 37.480469 55.914062 37.472656 55.914062 C 35.964844 55.90625 34.546875 55.3125 33.480469 54.246094 L 23.625 44.292969 C 23.328125 43.996094 22.847656 43.996094 22.550781 44.285156 Z M 22.183594 43.925781 " fill-opacity="1" fill-rule="nonzero"/><path fill="#fcc64d" d="M 151.421875 271.519531 L 169.148438 303.011719 C 169.769531 304.117188 171.292969 304.300781 172.15625 303.371094 L 173.867188 301.527344 L 193.019531 327.132812 L 200.246094 297.347656 L 201.730469 299.269531 C 202.796875 300.648438 205 299.964844 205.089844 298.214844 L 206.515625 271.519531 L 189.734375 284.550781 Z M 186.0625 289.507812 L 175.195312 301.222656 C 175.042969 301.382812 174.84375 301.464844 174.636719 301.464844 C 174.457031 301.464844 174.265625 301.398438 174.121094 301.257812 C 173.816406 300.96875 173.792969 300.488281 174.082031 300.183594 L 184.953125 288.472656 C 185.242188 288.160156 185.722656 288.144531 186.027344 288.433594 C 186.339844 288.714844 186.351562 289.203125 186.0625 289.507812 Z M 192.546875 287.375 C 192.835938 287.152344 193.214844 287.183594 193.484375 287.394531 C 193.527344 287.433594 193.574219 287.457031 193.613281 287.511719 L 199.683594 295.371094 C 199.941406 295.707031 199.882812 296.179688 199.546875 296.441406 C 199.410156 296.546875 199.242188 296.601562 199.082031 296.601562 C 198.851562 296.601562 198.632812 296.5 198.480469 296.304688 L 192.410156 288.441406 C 192.148438 288.113281 192.210938 287.632812 192.546875 287.375 Z M 235.605469 84.375 L 230.074219 83.769531 C 227.988281 83.542969 226.191406 85.25 226.296875 87.355469 C 226.585938 92.945312 227.445312 98.398438 229.121094 103.71875 C 230.257812 106.992188 231.492188 110.253906 233.480469 113.257812 C 234.292969 114.753906 235.476562 116.109375 236.550781 117.476562 C 236.625 117.574219 236.710938 117.675781 236.800781 117.765625 C 237.394531 118.382812 238.050781 118.96875 238.667969 119.558594 C 239.007812 119.871094 239.335938 120.191406 239.695312 120.488281 L 240.867188 121.28125 C 241.292969 121.59375 241.730469 121.890625 242.179688 122.15625 C 242.300781 122.234375 242.421875 122.296875 242.542969 122.363281 C 242.894531 122.5625 243.246094 122.761719 243.601562 122.9375 C 243.722656 122.996094 243.839844 123.050781 243.960938 123.101562 C 244.355469 123.285156 244.753906 123.460938 245.15625 123.613281 C 245.242188 123.644531 245.316406 123.675781 245.398438 123.714844 C 245.886719 123.898438 246.382812 124.070312 246.886719 124.21875 C 246.886719 124.222656 246.886719 124.230469 246.878906 124.238281 C 246.664062 125.171875 246.496094 126.109375 246.34375 127.054688 C 246.277344 127.472656 246.214844 127.898438 246.160156 128.328125 C 246.125 128.609375 246.09375 128.898438 246.0625 129.179688 C 245.988281 129.914062 245.917969 130.644531 245.878906 131.386719 C 245.644531 134.792969 245.828125 138.234375 246.382812 141.632812 C 246.871094 145.050781 247.914062 148.390625 249.261719 151.609375 C 251.929688 158.058594 256.542969 163.878906 261.988281 168.125 C 262.621094 168.628906 263.277344 169.117188 263.933594 169.589844 C 264.367188 169.902344 264.800781 170.191406 265.242188 170.488281 C 265.449219 170.625 265.644531 170.769531 265.851562 170.902344 C 266.4375 171.28125 267.03125 171.648438 267.625 172.007812 C 267.671875 172.035156 267.726562 172.066406 267.769531 172.097656 C 268.417969 172.488281 269.074219 172.851562 269.738281 173.210938 C 270.703125 170.425781 271.90625 166.828125 273.261719 162.703125 C 272.53125 162.277344 271.816406 161.824219 271.121094 161.359375 C 271.015625 161.292969 270.902344 161.214844 270.796875 161.148438 C 270.078125 160.660156 269.378906 160.15625 268.691406 159.621094 C 264.40625 156.25 260.96875 152.195312 258.585938 147.328125 C 257.359375 144.929688 256.40625 142.359375 255.714844 139.695312 C 254.988281 137.042969 254.546875 134.28125 254.464844 131.507812 C 254.433594 130.882812 254.417969 130.257812 254.425781 129.632812 C 254.425781 129.433594 254.433594 129.234375 254.433594 129.035156 C 254.441406 128.59375 254.457031 128.160156 254.488281 127.71875 C 254.503906 127.503906 254.511719 127.28125 254.527344 127.070312 C 254.5625 126.558594 254.617188 126.039062 254.679688 125.527344 C 254.691406 125.414062 254.699219 125.300781 254.714844 125.183594 C 255.003906 125.175781 255.292969 125.15625 255.585938 125.125 C 255.652344 125.117188 255.722656 125.109375 255.789062 125.101562 C 256.078125 125.070312 256.375 125.023438 256.65625 124.964844 L 259.035156 124.621094 C 259.1875 124.597656 259.339844 124.566406 259.492188 124.523438 L 261.730469 123.875 L 264.199219 123.148438 C 265.128906 122.8125 265.964844 122.394531 266.78125 121.945312 C 268.386719 121.015625 269.882812 119.921875 271.214844 118.453125 C 272.515625 117.019531 273.773438 115.074219 274.046875 112.574219 C 274.207031 111.320312 273.933594 110.019531 273.644531 109.074219 C 273.523438 108.5625 273.347656 108.042969 273.042969 107.5 C 272.761719 106.96875 272.53125 106.441406 272.066406 105.953125 C 271.296875 104.953125 270.148438 104.101562 268.984375 103.664062 C 268.386719 103.421875 267.792969 103.238281 267.222656 103.179688 C 266.636719 103.070312 266.066406 103.019531 265.53125 103.054688 C 263.355469 103.109375 261.503906 103.6875 259.78125 104.414062 C 258.066406 105.167969 256.511719 106.160156 255.050781 107.433594 C 254.320312 108.074219 253.625 108.78125 252.980469 109.714844 C 252.605469 110.195312 252.429688 110.535156 252.21875 110.902344 L 251.578125 112 C 251.226562 112.609375 250.890625 113.242188 250.570312 113.867188 C 250.464844 114.074219 250.359375 114.28125 250.261719 114.488281 C 250.023438 114.976562 249.804688 115.460938 249.582031 115.957031 C 249.414062 116.347656 249.246094 116.734375 249.085938 117.132812 C 248.773438 117.011719 248.476562 116.875 248.179688 116.726562 C 248.15625 116.722656 248.136719 116.707031 248.113281 116.699219 C 247.84375 116.5625 247.585938 116.421875 247.328125 116.261719 C 247.28125 116.234375 247.234375 116.210938 247.191406 116.179688 C 246.960938 116.035156 246.734375 115.882812 246.511719 115.722656 C 246.460938 115.683594 246.398438 115.644531 246.34375 115.601562 C 246.078125 115.402344 245.820312 115.1875 245.574219 114.960938 C 241.765625 111.902344 239.710938 106.570312 238.683594 101.25 C 238.011719 96.964844 237.949219 92.503906 238.566406 88.203125 C 238.855469 86.332031 237.507812 84.578125 235.605469 84.375 Z M 256.429688 118.070312 C 256.597656 117.605469 256.773438 117.148438 256.960938 116.699219 C 257.167969 116.195312 257.390625 115.691406 257.617188 115.195312 L 258.074219 114.242188 C 258.226562 113.921875 258.386719 113.5625 258.492188 113.433594 C 258.691406 113.066406 259.066406 112.632812 259.476562 112.246094 C 260.308594 111.445312 261.351562 110.6875 262.445312 110.148438 C 263.527344 109.597656 264.703125 109.261719 265.625 109.253906 C 266.582031 109.261719 266.980469 109.460938 267.292969 109.84375 C 267.597656 110.171875 268.039062 111.496094 267.902344 111.910156 C 267.816406 112.503906 267.382812 113.34375 266.574219 114.144531 C 265.804688 114.953125 264.753906 115.683594 263.671875 116.261719 C 263.125 116.539062 262.5625 116.796875 262.035156 116.964844 L 260.03125 117.46875 C 259.445312 117.613281 258.851562 117.734375 258.265625 117.835938 C 258.25 117.835938 258.226562 117.84375 258.210938 117.84375 C 257.609375 117.949219 257.015625 118.023438 256.429688 118.070312 Z M 376.34375 204.613281 C 376.34375 206.464844 376.328125 208.320312 376.0625 210.082031 C 375.902344 211.851562 375.5 213.695312 375.003906 215.425781 C 373.34375 221.238281 370.257812 226.285156 366.519531 230.578125 C 365.238281 232.050781 362.976562 232.117188 361.582031 230.761719 L 359.441406 228.671875 C 358.191406 227.453125 358.078125 225.492188 359.160156 224.125 C 361.941406 220.625 364.074219 216.722656 365.117188 212.695312 C 365.75 210.277344 365.945312 207.578125 365.863281 205.132812 C 365.695312 202.683594 365.070312 200.457031 363.988281 198.503906 C 361.878906 194.585938 357.621094 191.589844 352.539062 189.546875 C 347.476562 187.464844 341.71875 186.265625 335.882812 185.398438 C 330.015625 184.542969 324 184.128906 317.882812 183.703125 C 317.082031 183.652344 316.285156 183.597656 315.46875 183.542969 C 315.429688 183.542969 315.398438 183.535156 315.363281 183.535156 C 316.605469 179.785156 317.785156 176.109375 318.910156 172.507812 C 320.441406 172.59375 321.972656 172.699219 323.519531 172.816406 C 323.550781 172.816406 323.574219 172.820312 323.605469 172.820312 C 325.113281 172.9375 326.628906 173.066406 328.144531 173.21875 C 328.515625 173.257812 328.898438 173.300781 329.269531 173.339844 C 330.445312 173.460938 331.625 173.585938 332.804688 173.730469 C 334.375 173.921875 335.945312 174.132812 337.519531 174.371094 C 343.886719 175.390625 350.347656 176.742188 356.722656 179.410156 C 359.898438 180.746094 363.066406 182.421875 366.007812 184.703125 C 368.933594 186.96875 371.644531 189.910156 373.449219 193.441406 C 375.292969 196.949219 376.199219 200.875 376.34375 204.613281 Z M 276.265625 208.617188 L 283.476562 210.371094 C 282.996094 212.34375 282.070312 214.128906 280.820312 215.625 L 274.519531 211.492188 C 275.367188 210.742188 275.984375 209.753906 276.265625 208.617188 Z M 268.207031 213.253906 L 276.746094 218.867188 C 275.351562 219.589844 273.828125 220.09375 272.210938 220.277344 L 270.46875 220.464844 L 260.75 214.078125 L 253.046875 214.921875 L 262.773438 221.3125 L 243.304688 223.457031 L 234.5 224.425781 L 226.410156 225.316406 L 226.335938 224.652344 L 225.863281 220.328125 L 232.40625 224.628906 L 240.105469 223.785156 L 230.402344 217.410156 L 233.84375 217.027344 L 237.859375 216.585938 L 247.5625 222.960938 L 255.265625 222.113281 L 245.558594 215.738281 L 247.824219 215.488281 L 268.222656 213.238281 Z M 305.0625 38.4375 L 307.796875 35.675781 C 307.730469 35.609375 307.675781 35.523438 307.644531 35.441406 C 305.230469 36.714844 302.175781 36.339844 300.136719 34.320312 C 297.621094 31.816406 297.605469 27.753906 300.105469 25.238281 L 304.445312 20.859375 C 301.949219 20.128906 299.441406 19.425781 296.9375 18.738281 C 296.835938 18.710938 296.738281 18.6875 296.640625 18.65625 C 294.195312 17.992188 291.75 17.351562 289.296875 16.726562 C 289.136719 16.6875 288.976562 16.644531 288.816406 16.605469 C 286.410156 15.996094 283.996094 15.40625 281.574219 14.835938 C 281.375 14.789062 281.175781 14.746094 280.980469 14.699219 C 278.585938 14.140625 276.1875 13.601562 273.796875 13.082031 C 273.574219 13.035156 273.355469 12.992188 273.140625 12.9375 C 270.75 12.417969 268.359375 11.929688 265.957031 11.449219 C 265.738281 11.402344 265.523438 11.367188 265.304688 11.320312 C 262.894531 10.847656 260.480469 10.390625 258.066406 9.957031 C 257.871094 9.917969 257.679688 9.886719 257.480469 9.847656 C 255.035156 9.414062 252.589844 8.996094 250.144531 8.597656 C 249.992188 8.574219 249.847656 8.550781 249.695312 8.53125 C 247.199219 8.125 244.699219 7.742188 242.195312 7.386719 C 242.117188 7.378906 242.046875 7.363281 241.972656 7.355469 C 210.628906 2.878906 178.933594 1.734375 147.40625 3.902344 C 147.292969 3.910156 147.179688 3.914062 147.058594 3.921875 C 144.644531 4.089844 142.226562 4.28125 139.8125 4.488281 C 139.539062 4.511719 139.265625 4.535156 139 4.554688 C 136.691406 4.761719 134.382812 4.984375 132.082031 5.21875 C 131.710938 5.257812 131.328125 5.296875 130.953125 5.335938 C 128.722656 5.570312 126.492188 5.828125 124.257812 6.097656 C 123.816406 6.148438 123.375 6.203125 122.925781 6.257812 C 120.75 6.523438 118.5625 6.8125 116.390625 7.117188 C 115.902344 7.1875 115.417969 7.257812 114.929688 7.324219 C 112.78125 7.628906 110.640625 7.949219 108.492188 8.285156 C 107.980469 8.371094 107.464844 8.445312 106.953125 8.53125 C 104.828125 8.871094 102.703125 9.230469 100.578125 9.597656 C 100.058594 9.6875 99.542969 9.78125 99.023438 9.871094 C 96.898438 10.253906 94.78125 10.640625 92.664062 11.054688 C 92.152344 11.152344 91.644531 11.25 91.132812 11.351562 C 89 11.769531 86.867188 12.203125 84.742188 12.65625 C 84.261719 12.753906 83.78125 12.859375 83.304688 12.96875 C 81.148438 13.433594 78.992188 13.914062 76.835938 14.410156 C 76.402344 14.507812 75.976562 14.613281 75.550781 14.714844 C 73.347656 15.230469 71.144531 15.757812 68.945312 16.308594 C 68.59375 16.390625 68.253906 16.484375 67.902344 16.574219 C 65.617188 17.152344 63.339844 17.742188 61.070312 18.359375 C 60.855469 18.417969 60.636719 18.480469 60.421875 18.535156 C 58.015625 19.191406 55.617188 19.851562 53.214844 20.546875 L 57.847656 25.222656 C 60.34375 27.738281 60.332031 31.800781 57.816406 34.304688 C 55.773438 36.332031 52.722656 36.707031 50.304688 35.425781 C 50.269531 35.507812 50.222656 35.59375 50.152344 35.660156 L 52.886719 38.421875 C 55.386719 40.9375 55.371094 45.003906 52.859375 47.503906 C 51.234375 49.113281 48.980469 49.667969 46.910156 49.195312 C 49.710938 57.820312 52.507812 66.445312 55.3125 75.078125 C 56.574219 78.972656 60.582031 81.199219 64.511719 80.347656 C 64.71875 80.300781 64.929688 80.253906 65.136719 80.195312 C 138.960938 57.789062 217.773438 57.789062 291.597656 80.195312 C 291.902344 80.285156 292.214844 80.355469 292.519531 80.40625 C 292.542969 80.414062 292.574219 80.414062 292.59375 80.421875 C 292.890625 80.46875 293.1875 80.507812 293.488281 80.523438 C 296.984375 80.707031 300.296875 78.5625 301.421875 75.085938 C 304.203125 66.507812 306.992188 57.933594 309.769531 49.355469 C 308.097656 49.386719 306.40625 48.777344 305.125 47.496094 C 302.582031 45.019531 302.566406 40.953125 305.0625 38.4375 Z M 110.0625 26.144531 L 104.730469 54.886719 C 104.628906 55.367188 104.257812 55.738281 103.9375 55.859375 L 103.710938 55.914062 C 103.488281 55.96875 103.273438 55.9375 103.070312 55.847656 L 103.015625 55.816406 C 102.960938 55.792969 102.886719 55.753906 102.824219 55.6875 C 102.75 55.632812 102.648438 55.527344 102.589844 55.457031 L 102.511719 55.335938 L 91.773438 40.046875 L 88.332031 58.402344 C 88.339844 58.492188 88.324219 58.597656 88.285156 58.683594 C 88.261719 58.835938 88.1875 58.949219 88.117188 59.054688 L 88.070312 59.125 L 88.027344 59.132812 C 87.867188 59.316406 87.652344 59.429688 87.386719 59.484375 C 87.292969 59.507812 87.203125 59.515625 87.121094 59.515625 C 86.945312 59.515625 86.777344 59.476562 86.609375 59.398438 L 86.433594 59.277344 C 86.25 59.164062 86.113281 58.988281 86.015625 58.757812 L 69.332031 35.027344 C 69.144531 34.792969 69.058594 34.472656 69.105469 34.152344 C 69.152344 33.824219 69.324219 33.535156 69.585938 33.351562 C 69.820312 33.160156 70.140625 33.074219 70.460938 33.121094 C 70.789062 33.167969 71.078125 33.34375 71.261719 33.601562 L 86.464844 55.257812 L 89.890625 36.957031 C 90.042969 36.453125 90.410156 36.082031 90.84375 35.988281 C 91.339844 35.882812 91.835938 36.050781 92.175781 36.4375 L 102.871094 51.667969 L 107.683594 25.640625 C 107.859375 24.953125 108.460938 24.574219 109.148438 24.703125 C 109.460938 24.757812 109.734375 24.945312 109.917969 25.230469 C 110.085938 25.511719 110.136719 25.839844 110.0625 26.144531 Z M 136.402344 50.972656 L 121.441406 52.902344 C 121.417969 52.902344 121.402344 52.902344 121.378906 52.902344 C 120.761719 52.902344 120.269531 52.460938 120.191406 51.859375 L 116.71875 24.878906 C 116.636719 24.238281 117.105469 23.628906 117.746094 23.542969 L 117.832031 23.535156 L 132.625 21.628906 C 133.285156 21.546875 133.871094 21.996094 133.957031 22.660156 C 134.046875 23.351562 133.605469 23.949219 132.933594 24.03125 L 119.277344 25.800781 L 120.703125 36.882812 L 132.625 35.339844 C 133.269531 35.257812 133.871094 35.738281 133.964844 36.410156 C 134.046875 37.050781 133.574219 37.660156 132.933594 37.742188 L 121.015625 39.285156 L 122.429688 50.324219 L 136.089844 48.5625 C 136.757812 48.480469 137.339844 48.9375 137.429688 49.632812 C 137.511719 50.300781 137.0625 50.890625 136.402344 50.972656 Z M 161.445312 48.679688 C 161.226562 48.929688 160.921875 49.074219 160.585938 49.097656 L 145.617188 50.113281 C 145.59375 50.113281 145.5625 50.113281 145.542969 50.113281 C 144.933594 50.113281 144.390625 49.617188 144.351562 49 L 142.519531 21.859375 C 142.496094 21.546875 142.601562 21.242188 142.816406 20.996094 C 143.027344 20.753906 143.316406 20.609375 143.628906 20.585938 C 143.957031 20.5625 144.277344 20.667969 144.519531 20.875 C 144.765625 21.082031 144.917969 21.371094 144.941406 21.691406 L 146.691406 47.59375 L 160.433594 46.664062 C 161.117188 46.617188 161.695312 47.121094 161.742188 47.808594 C 161.757812 48.136719 161.660156 48.441406 161.445312 48.679688 Z M 189.292969 45.558594 C 186.621094 47.632812 183.230469 48.777344 179.773438 48.785156 C 179.765625 48.785156 179.75 48.785156 179.742188 48.785156 C 171.285156 48.785156 164.402344 42.113281 164.386719 33.898438 C 164.371094 25.488281 171.105469 18.847656 179.710938 18.785156 C 179.71875 18.785156 179.734375 18.785156 179.742188 18.785156 C 183.160156 18.785156 186.535156 19.929688 189.246094 22.019531 C 189.53125 22.246094 189.703125 22.597656 189.726562 22.957031 C 189.742188 23.269531 189.644531 23.558594 189.4375 23.765625 C 189.285156 24.007812 189.011719 24.183594 188.691406 24.230469 C 188.363281 24.285156 188.027344 24.191406 187.769531 23.988281 C 185.425781 22.171875 182.652344 21.210938 179.742188 21.210938 C 179.734375 21.210938 179.726562 21.210938 179.71875 21.210938 C 176.246094 21.21875 172.992188 22.539062 170.5625 24.925781 C 168.132812 27.3125 166.800781 30.5 166.808594 33.890625 C 166.816406 37.214844 168.15625 40.34375 170.59375 42.699219 C 173.03125 45.054688 176.285156 46.351562 179.742188 46.351562 C 179.75 46.351562 179.757812 46.351562 179.773438 46.351562 C 182.78125 46.34375 185.605469 45.351562 187.722656 43.546875 C 188.050781 43.324219 188.425781 43.25 188.769531 43.332031 C 189.058594 43.402344 189.300781 43.570312 189.453125 43.820312 C 189.667969 44.027344 189.78125 44.324219 189.765625 44.652344 C 189.742188 45.019531 189.566406 45.359375 189.292969 45.558594 Z M 224.683594 36.21875 C 223.996094 44.195312 217.863281 50.074219 210.5 50.074219 C 210.125 50.074219 209.746094 50.058594 209.363281 50.027344 C 201.425781 49.378906 195.707031 42.3125 196.347656 33.921875 C 197.070312 25.542969 203.855469 19.480469 211.785156 20.128906 C 219.65625 20.761719 225.3125 27.828125 224.683594 36.21875 Z M 254.160156 54.847656 C 254.105469 55.160156 253.9375 55.425781 253.671875 55.617188 C 253.464844 55.761719 253.222656 55.847656 252.980469 55.847656 C 252.917969 55.847656 252.851562 55.839844 252.789062 55.832031 C 252.460938 55.777344 252.1875 55.601562 252.003906 55.34375 C 251.828125 55.089844 251.761719 54.769531 251.8125 54.464844 L 255.675781 31.351562 L 244.753906 42.1875 C 244.484375 42.484375 244.097656 42.625 243.6875 42.554688 L 243.601562 42.539062 C 243.136719 42.464844 242.832031 42.226562 242.664062 41.832031 L 235.855469 28.074219 L 232.003906 51.148438 C 231.949219 51.460938 231.78125 51.726562 231.515625 51.917969 C 231.253906 52.101562 230.9375 52.179688 230.632812 52.125 C 230.304688 52.070312 230.023438 51.894531 229.832031 51.636719 C 229.640625 51.378906 229.566406 51.058594 229.617188 50.753906 L 234.066406 24.09375 C 234.128906 23.734375 234.347656 23.429688 234.660156 23.261719 C 234.699219 23.214844 234.742188 23.199219 234.765625 23.195312 L 234.8125 23.171875 C 235.421875 22.910156 236.121094 23.164062 236.414062 23.742188 L 244.160156 39.414062 L 256.535156 27.113281 C 256.734375 26.890625 257.03125 26.761719 257.367188 26.761719 C 257.367188 26.761719 257.375 26.761719 257.375 26.761719 C 257.695312 26.761719 258.007812 26.882812 258.234375 27.089844 C 258.363281 27.273438 258.449219 27.378906 258.515625 27.53125 C 258.609375 27.820312 258.632812 28.035156 258.609375 28.203125 Z M 285 34.128906 C 284.925781 34.457031 284.734375 34.722656 284.476562 34.898438 C 284.207031 35.074219 283.882812 35.128906 283.554688 35.050781 L 270.164062 31.832031 L 267.558594 42.699219 L 279.242188 45.503906 C 279.882812 45.660156 280.269531 46.320312 280.109375 46.984375 C 279.957031 47.609375 279.304688 48.015625 278.671875 47.871094 L 266.988281 45.0625 L 264.390625 55.890625 L 277.78125 59.109375 C 278.441406 59.269531 278.816406 59.902344 278.648438 60.589844 C 278.570312 60.894531 278.390625 61.160156 278.128906 61.320312 C 277.941406 61.441406 277.726562 61.503906 277.503906 61.503906 C 277.40625 61.503906 277.316406 61.488281 277.214844 61.464844 L 262.554688 57.941406 C 261.945312 57.746094 261.609375 57.132812 261.753906 56.523438 L 268.097656 30.078125 C 268.175781 29.773438 268.367188 29.515625 268.640625 29.347656 C 268.914062 29.179688 269.234375 29.125 269.539062 29.203125 L 284.125 32.710938 C 284.445312 32.785156 284.710938 32.976562 284.871094 33.25 C 285.023438 33.503906 285.070312 33.824219 285 34.128906 Z M 222.222656 36.019531 C 221.621094 42.929688 215.929688 48.128906 209.554688 47.609375 C 206.402344 47.351562 203.542969 45.820312 201.511719 43.292969 C 199.460938 40.753906 198.488281 37.492188 198.761719 34.113281 C 199.035156 30.703125 200.527344 27.648438 202.957031 25.488281 C 205.121094 23.566406 207.816406 22.546875 210.644531 22.546875 C 210.957031 22.546875 211.277344 22.558594 211.597656 22.582031 C 217.972656 23.09375 222.738281 29.125 222.222656 36.019531 Z M 78.839844 210.074219 C 79.296875 216.929688 77.925781 224.292969 75.007812 230.3125 C 72.488281 235.617188 69.363281 240.285156 66.066406 244.65625 C 65.007812 246.058594 63.925781 247.4375 62.835938 248.789062 C 62.769531 248.871094 62.699219 248.964844 62.628906 249.046875 C 62.144531 249.648438 61.65625 250.257812 61.167969 250.855469 C 61.144531 250.886719 61.113281 250.914062 61.09375 250.945312 C 60.421875 251.769531 59.757812 252.578125 59.097656 253.394531 C 58.898438 253.636719 58.699219 253.882812 58.503906 254.117188 C 58.207031 254.476562 57.914062 254.84375 57.625 255.199219 C 57.351562 255.542969 57.078125 255.878906 56.804688 256.222656 C 56.574219 256.511719 56.347656 256.792969 56.117188 257.085938 C 55.796875 257.488281 55.476562 257.902344 55.164062 258.304688 C 54.992188 258.535156 54.816406 258.753906 54.640625 258.984375 C 54.152344 259.617188 53.671875 260.257812 53.191406 260.898438 C 49.605469 265.59375 46.621094 270.484375 44.433594 275.699219 C 42.21875 280.882812 41.027344 286.375 40.9375 291.742188 C 40.800781 301.0625 44.953125 310.234375 51.675781 315.871094 C 53.261719 317.195312 53.613281 319.492188 52.355469 321.140625 L 48.921875 325.636719 C 47.519531 327.476562 44.777344 327.652344 43.191406 325.964844 C 34.289062 316.511719 29.945312 303.625 30.945312 291.292969 C 31.972656 277.558594 38.613281 265.535156 46.359375 255.679688 C 50.167969 250.6875 54.253906 246.15625 57.832031 241.398438 C 58.207031 240.894531 58.578125 240.398438 58.953125 239.898438 C 59.277344 239.445312 59.605469 238.996094 59.933594 238.546875 C 59.964844 238.5 59.996094 238.457031 60.035156 238.417969 C 60.375 237.9375 60.710938 237.457031 61.046875 236.976562 C 61.054688 236.960938 61.070312 236.945312 61.078125 236.929688 C 61.417969 236.441406 61.746094 235.945312 62.074219 235.449219 C 62.339844 235.046875 62.609375 234.636719 62.867188 234.230469 C 64.328125 231.773438 65.675781 229.289062 66.628906 226.742188 C 67.671875 224.21875 68.28125 221.609375 68.519531 219.03125 C 68.867188 216.464844 68.648438 213.894531 68.183594 211.246094 C 67.453125 207.175781 65.996094 203.066406 64.207031 198.863281 C 63.339844 196.820312 64.390625 194.472656 66.5 193.792969 L 71.632812 192.121094 C 73.757812 191.429688 76.019531 192.734375 76.476562 194.921875 C 77.476562 199.734375 78.519531 204.75 78.839844 210.074219 Z M 78.839844 210.074219 " fill-opacity="1" fill-rule="nonzero"/></svg>